<svg width="145" height="143" viewBox="0 0 145 143" fill="none" xmlns="http://www.w3.org/2000/svg">
<path d="M3 36.6557V3H41.7214" stroke="#FF4713" stroke-width="6"/>
<path d="M142 105.362L142 139.018L103.279 139.018" stroke="#FF4713" stroke-width="6"/>
<g clip-path="url(#clip0_30_5069)">
<path d="M108.513 34.4952C103.035 29.0169 95.7511 26 88.0039 26C80.2567 26 72.9732 29.0169 67.4952 34.4952C58.1248 43.8655 56.519 58.1047 62.6772 69.1441L58.1729 73.6483L56.3084 71.7838L27.0078 101.084L41.9234 116L71.224 86.6994L69.3595 84.8349L73.8572 80.3372C78.1317 82.7327 82.9695 84.0078 88.0039 84.0078C95.7511 84.0078 103.035 80.9909 108.513 75.5127C119.821 64.2041 119.821 45.8037 108.513 34.4952ZM41.9232 108.542L34.4655 101.084L48.8506 86.6994L56.3083 94.1571L41.9232 108.542ZM60.0371 90.4282L52.5794 82.9705L56.3083 79.2417L63.766 86.6994L60.0371 90.4282ZM65.6306 81.106L61.9016 77.377L65.7162 73.5624C66.2749 74.2323 66.8666 74.8839 67.4952 75.5125C68.1215 76.1388 68.7726 76.7313 69.444 77.2924L65.6306 81.106ZM104.784 71.784C100.302 76.2661 94.3426 78.7344 88.0039 78.7344C81.6652 78.7344 75.7061 76.2661 71.224 71.7838C61.9716 62.5312 61.9716 47.4762 71.224 38.2238C75.7061 33.7418 81.6652 31.2734 88.0039 31.2734C94.3426 31.2734 100.302 33.7418 104.784 38.224C114.036 47.4764 114.036 62.5314 104.784 71.784Z" fill="#FF4713"/>
</g>
<defs>
<clipPath id="clip0_30_5069">
<rect width="90" height="90" fill="white" transform="translate(27 26)"/>
</clipPath>
</defs>
</svg>
