<svg width="145" height="143" viewBox="0 0 145 143" fill="none" xmlns="http://www.w3.org/2000/svg">
<g clip-path="url(#clip0_30_5080)">
<path d="M50.8042 96.4345L42.9419 85.8531C41.5417 83.6754 42.2774 80.7548 44.5673 79.4012C46.7612 78.1043 49.5719 78.7318 50.9135 80.8183L59.2971 92.2103C61.4375 95.5391 61.866 99.6854 60.4578 103.439L56.7424 110.756H41.6684L44.3253 104.903L32.0605 88.3836V52.8359H35.1918C39.0458 52.8359 42.1703 55.9602 42.1703 59.8144V83.7234" stroke="#FF4713" stroke-width="4.18605" stroke-miterlimit="10"/>
<path d="M93.406 96.4345L101.268 85.8531C102.669 83.6754 101.933 80.7548 99.643 79.4012C97.4491 78.1043 94.6383 78.7318 93.2967 80.8183L84.9132 92.2103C82.7728 95.5391 82.3443 99.6854 83.7525 103.439L87.4679 110.756H102.542L99.885 104.903L112.15 88.3833V52.8359H109.019C105.165 52.8359 102.04 55.9602 102.04 59.8144V83.7234" stroke="#FF4713" stroke-width="4.18605" stroke-miterlimit="10"/>
<path d="M79.5184 76.3565L71.9784 80.6651L64.4384 76.3565C57.155 72.1946 52.6602 64.4491 52.6602 56.0604V35.6L71.9784 30.989L91.2967 35.5998V56.0604C91.2967 64.4491 86.8018 72.1946 79.5184 76.3565Z" stroke="#FF4713" stroke-width="4.18605" stroke-miterlimit="10"/>
<path d="M63.3555 53.2849L69.1343 59.0639L81.595 46.6033" stroke="#FF4713" stroke-width="4.18605" stroke-miterlimit="10"/>
</g>
<path d="M3 36.6557V3H41.7214" stroke="#FF4713" stroke-width="6"/>
<path d="M142 105.362L142 139.018L103.279 139.018" stroke="#FF4713" stroke-width="6"/>
<defs>
<clipPath id="clip0_30_5080">
<rect width="85.0549" height="85.0549" fill="white" transform="translate(29.5781 28.3083)"/>
</clipPath>
</defs>
</svg>
