<svg width="145" height="143" viewBox="0 0 145 143" fill="none" xmlns="http://www.w3.org/2000/svg">
<path d="M77.8042 34.3854C77.8042 31.2121 75.2317 28.6394 72.0582 28.6394H71.9411C68.7677 28.6394 66.1951 31.2119 66.1951 34.3854H60.5664V44.5935H83.4328V34.3854H77.8042Z" stroke="#FF4713" stroke-width="4.18605" stroke-miterlimit="10"/>
<path d="M60.5662 34.3857H39.8105V113.363H104.188V34.3857H83.4327" stroke="#FF4713" stroke-width="4.18605" stroke-miterlimit="10"/>
<path d="M51.625 58.3069H57.0778" stroke="#FF4713" stroke-width="4.18605" stroke-miterlimit="10"/>
<path d="M63.1465 58.3069H92.0813" stroke="#FF4713" stroke-width="4.18605" stroke-miterlimit="10"/>
<path d="M51.625 71.9973H57.0778" stroke="#FF4713" stroke-width="4.18605" stroke-miterlimit="10"/>
<path d="M63.1465 71.9973H92.0813" stroke="#FF4713" stroke-width="4.18605" stroke-miterlimit="10"/>
<path d="M51.625 85.688H57.0778" stroke="#FF4713" stroke-width="4.18605" stroke-miterlimit="10"/>
<path d="M63.1465 85.688H92.0813" stroke="#FF4713" stroke-width="4.18605" stroke-miterlimit="10"/>
<path d="M51.625 99.3784H57.0778" stroke="#FF4713" stroke-width="4.18605" stroke-miterlimit="10"/>
<path d="M63.1465 99.3784H92.0813" stroke="#FF4713" stroke-width="4.18605" stroke-miterlimit="10"/>
<path d="M3 36.6557V3H41.7214" stroke="#FF4713" stroke-width="6"/>
<path d="M142 105.364L142 139.02L103.279 139.02" stroke="#FF4713" stroke-width="6"/>
</svg>
