<svg width="145" height="143" viewBox="0 0 145 143" fill="none" xmlns="http://www.w3.org/2000/svg">
<path d="M21 26L123.485 116" stroke="#464749" stroke-width="0.32967"/>
<path d="M123.485 26L21 116" stroke="#464749" stroke-width="0.32967"/>
<g clip-path="url(#clip0_30_5131)">
<mask id="mask0_30_5131" style="mask-type:luminance" maskUnits="userSpaceOnUse" x="29" y="28" width="86" height="86">
<path d="M29.7637 28.4985H114.819V113.553H29.7637V28.4985Z" fill="white"/>
</mask>
<g mask="url(#mask0_30_5131)">
<path d="M94.7176 51.0907C82.3317 51.0907 72.291 61.1314 72.291 73.5173" stroke="#FF4713" stroke-width="4.18605" stroke-miterlimit="10"/>
<path d="M49.8672 51.0903C62.2531 51.0903 72.2938 40.8836 72.2938 28.4976" stroke="#FF4713" stroke-width="4.18605" stroke-miterlimit="10"/>
<path d="M72.291 28.4976C72.291 40.8836 82.3317 51.0903 94.7176 51.0903" stroke="#FF4713" stroke-width="4.18605" stroke-miterlimit="10"/>
<path d="M49.8672 51.0907C62.2531 51.0907 72.2938 61.1314 72.2938 73.5173" stroke="#FF4713" stroke-width="4.18605" stroke-miterlimit="10"/>
<path d="M109.671 95.9449C100.038 95.9449 92.2285 103.92 92.2285 113.554" stroke="#FF4713" stroke-width="4.18605" stroke-miterlimit="10"/>
<path d="M74.7852 95.9443C84.4186 95.9443 92.2281 88.1349 92.2281 78.5014" stroke="#FF4713" stroke-width="4.18605" stroke-miterlimit="10"/>
<path d="M92.2285 78.5014C92.2285 88.1349 100.038 95.9443 109.671 95.9443" stroke="#FF4713" stroke-width="4.18605" stroke-miterlimit="10"/>
<path d="M74.7852 95.9449C84.4186 95.9449 92.2281 103.92 92.2281 113.554" stroke="#FF4713" stroke-width="4.18605" stroke-miterlimit="10"/>
<path d="M59.8342 80.9956C52.9532 80.9956 47.375 86.5739 47.375 93.4548" stroke="#FF4713" stroke-width="4.18605" stroke-miterlimit="10"/>
<path d="M34.916 80.9917C41.797 80.9917 47.3752 75.4135 47.3752 68.5325" stroke="#FF4713" stroke-width="4.18605" stroke-miterlimit="10"/>
<path d="M47.375 68.5325C47.375 75.4135 52.9532 80.9917 59.8342 80.9917" stroke="#FF4713" stroke-width="4.18605" stroke-miterlimit="10"/>
<path d="M34.916 80.9956C41.797 80.9956 47.3752 86.5739 47.3752 93.4548" stroke="#FF4713" stroke-width="4.18605" stroke-miterlimit="10"/>
<path d="M62.3262 103.419V98.435" stroke="#FF4713" stroke-width="4.18605" stroke-miterlimit="10"/>
<path d="M102.195 73.5173V68.5336" stroke="#FF4713" stroke-width="4.18605" stroke-miterlimit="10"/>
<path d="M42.3906 43.616V38.6323" stroke="#FF4713" stroke-width="4.18605" stroke-miterlimit="10"/>
<path d="M92.2285 33.4807V28.497" stroke="#FF4713" stroke-width="4.18605" stroke-miterlimit="10"/>
</g>
</g>
<path d="M3 36.6557V3H41.7214" stroke="#FF4713" stroke-width="6"/>
<path d="M142 105.364L142 139.02L103.279 139.02" stroke="#FF4713" stroke-width="6"/>
<defs>
<clipPath id="clip0_30_5131">
<rect width="85.0549" height="85.0549" fill="white" transform="translate(29.7637 28.4961)"/>
</clipPath>
</defs>
</svg>
