<svg width="642" height="600" viewBox="0 0 642 600" fill="none" xmlns="http://www.w3.org/2000/svg">
<path d="M641.609 427.371C567.144 466.513 488.306 509.742 414.457 550.52H421.316C388.59 530.606 342.679 503.805 310.335 484.459C277.725 464.862 231.264 438.128 199.004 419.015L203.844 427.387C204.078 395.182 204.128 330.489 204.194 298.301C204.261 266.162 203.961 201.369 203.861 169.214L199.021 177.603C271.067 135.492 349.621 89.0438 421.35 46.0983H414.457C457.681 70.2312 512.922 100.118 556.096 123.634C583.515 138.577 614.106 154.671 641.609 169.198C597.267 141.062 549.12 111.726 504.243 84.2572C484.667 72.3826 438.072 44.2804 418.012 32.1556L414.424 34.157L358.016 65.6114C303.793 95.7983 243.246 130.138 189.291 160.809L184.468 163.577V169.198C184.051 250.085 184.017 346.483 184.468 427.371L184.485 432.974L189.308 435.743C243.263 466.413 303.81 500.72 358.049 530.923L414.441 562.394L418.012 564.379C491.393 520.033 569.33 473.085 641.609 427.371Z" fill="#464749"/>
<path d="M515.757 445.532C431.812 489.662 342.927 538.394 259.666 584.358H267.41C230.511 561.91 178.759 531.706 142.293 509.875C105.544 487.777 53.1415 457.657 16.7764 436.092L22.2337 445.532C22.5007 409.224 22.5508 336.292 22.6342 300.001C22.7177 263.76 22.3672 190.711 22.2504 154.487L16.7931 163.943C98.0178 116.461 186.569 64.1096 267.426 15.6939H259.666C308.398 42.8954 370.664 76.5847 419.345 103.119C450.286 119.98 484.766 138.126 515.773 154.504C465.79 122.799 411.518 89.7268 360.917 58.7394C338.855 45.3637 286.318 13.6592 263.722 0L259.683 2.25151L196.098 37.7086C134.967 71.7481 66.7262 110.457 5.87861 145.031L0.438021 148.149V154.487C-0.0292667 245.681 -0.0626445 354.354 0.438021 445.532L0.454727 451.853L5.87861 454.972C66.7095 489.545 134.967 528.238 196.098 562.277L259.683 597.751L263.705 600.002C346.432 550.002 434.282 497.083 515.773 445.549L515.757 445.532Z" fill="#FF4713"/>
</svg>
