<svg width="414" height="414" viewBox="0 0 414 414" fill="none" xmlns="http://www.w3.org/2000/svg">
<g clip-path="url(#clip0_30_7718)">
<path fill-rule="evenodd" clip-rule="evenodd" d="M245.329 162.721C245.329 162.721 245.626 162.763 245.795 162.848L227.548 144.6L226.487 145.661L226.615 145.788C226.615 145.788 226.445 145.788 226.36 145.788L218.808 153.341L236.97 171.503L212.953 159.196L204.213 167.936L235.318 199.041C235.318 199.041 235.403 199.126 235.742 199.211C235.7 199.254 235.658 199.296 235.615 199.338L238.798 202.521C238.798 202.521 239.095 202.479 239.349 202.564C239.349 202.733 239.307 202.861 239.307 203.03L240.368 204.091C240.368 204.091 240.877 204.261 241.259 204.473L241.004 204.728L244.527 208.25L246.224 206.553C246.224 206.553 246.139 206.468 246.054 206.468C245.375 206.213 245.205 206.383 244.781 205.704C245.205 205.704 245.502 205.916 245.927 206.086C246.351 205.662 246.86 205.153 247.2 205.068C247.284 205.153 247.454 205.153 247.539 205.238L248.133 204.644C248.133 204.644 247.836 204.346 247.709 204.049C248.218 203.795 248.472 203.71 248.939 203.837L253.267 199.51L234.977 181.22L258.698 194.079L267.862 184.914L260.86 177.913L260.818 177.955C260.181 177.828 259.714 178.04 259.035 177.7L259.417 177.318C259.417 177.318 260.054 177.361 260.351 177.403L246.05 163.102L246.008 163.145C246.008 163.654 245.711 163.951 245.117 164.545L244.607 163.781C244.777 163.442 244.989 163.145 245.371 162.763L245.329 162.721ZM238.67 196.538C239.137 196.411 238.712 196.411 239.179 196.538C239.179 196.538 239.349 196.623 239.688 196.793C239.688 196.793 239.688 196.963 239.688 197.047C239.603 197.047 239.519 197.047 239.434 197.047C238.882 197.005 238.925 196.962 238.67 196.538ZM231.286 190.427C231.753 190.215 231.711 190.258 231.795 190.682C231.244 190.809 231.626 190.597 231.286 190.427ZM231.795 190.937C231.795 190.937 232.135 190.767 232.305 190.682C232.432 190.979 232.432 190.809 232.432 191.064L232.559 191.191C232.559 191.191 232.432 191.318 232.177 191.318C231.838 191.149 232.05 191.276 231.795 190.937ZM231.541 193.228C231.541 193.228 232.22 192.973 232.05 193.482C231.965 193.822 231.541 193.398 231.541 193.228ZM230.523 192.973C230.141 192.846 230.268 192.803 230.013 192.464C230.48 192.422 230.353 192.379 230.777 192.719C230.777 192.803 230.777 192.888 230.777 192.973L230.523 192.973ZM243.72 204.643C243.72 204.643 243.678 204.855 243.466 205.152C243.338 205.11 243.211 205.067 243.084 205.025C243.126 204.643 243.168 204.77 242.956 204.388C243.381 204.219 243.253 204.346 243.593 204.261C243.762 204.601 243.72 204.389 243.72 204.643ZM238.925 198.83C238.925 198.83 238.797 198.957 238.543 198.957C237.991 198.829 238.076 198.32 237.652 198.066C237.44 197.853 237.143 198.15 236.633 197.811L237.397 197.302C237.779 197.429 238.203 197.429 238.543 197.429C238.67 197.896 238.797 198.363 238.925 198.83ZM244.738 203.37C244.399 203.285 244.611 203.328 244.356 202.988C244.738 202.946 244.569 202.946 244.993 203.116C244.95 203.158 244.993 203.285 244.993 203.37C244.908 203.37 244.823 203.37 244.738 203.37ZM246.393 202.989C246.478 203.498 246.478 203.922 246.139 204.007C245.926 203.964 246.054 204.007 245.757 203.88C245.842 203.37 245.884 203.328 245.375 202.734C245.841 202.522 245.841 202.691 246.266 202.607C246.436 202.946 246.351 202.776 246.393 202.989ZM247.03 202.352C246.902 202.734 246.563 202.31 246.52 202.097C246.69 202.182 247.199 201.928 247.03 202.352ZM240.834 196.156C240.834 196.156 240.622 196.114 240.325 195.902C240.494 195.817 240.664 195.732 240.834 195.647C240.919 195.817 241.004 195.987 241.089 196.156C241.004 196.156 240.919 196.156 240.834 196.156ZM243.635 198.193C243.507 198.575 243.125 198.109 243.125 197.939C243.253 197.981 243.762 197.727 243.635 198.193ZM247.751 199.339L247.538 199.552L247.284 199.297L247.496 199.085L247.751 199.339ZM220.04 171.544L219.531 172.053L219.276 171.799L219.785 171.289L220.04 171.544ZM251.06 201.377C251.061 201.886 250.721 201.461 250.551 201.376C250.721 201.292 250.891 201.207 251.06 201.122C251.06 201.207 251.06 201.292 251.06 201.377ZM246.265 196.327C246.265 196.327 245.629 196.454 245.883 196.199C245.968 196.199 246.18 195.987 246.265 196.327ZM249.404 180.967C249.404 180.967 248.767 181.094 249.022 180.839C249.107 180.839 249.319 180.627 249.404 180.967ZM235.696 155.634C235.696 155.634 235.696 155.803 235.484 156.1C235.356 155.973 235.144 155.93 234.975 155.846C235.272 155.549 235.484 155.506 235.696 155.379L235.696 155.634ZM298.364 116.475C296.752 116.305 294.673 117.026 292.085 118.596C294.163 116.092 295.054 113.928 294.757 112.019C294.46 110.194 292.72 107.691 289.58 104.55C286.185 101.156 283.13 99.2034 280.456 98.7364C277.783 98.2694 275.407 98.6935 273.286 100.051C271.122 101.451 267.6 104.548 262.636 109.512L255.253 116.895L295.525 157.167L296.968 155.724C296.374 155.554 296.331 155.766 295.992 155.257C296.586 154.918 296.628 154.96 297.222 155.469L301.423 151.269C301.423 151.269 301.21 151.396 300.828 151.184C300.744 150.76 300.531 150.208 300.446 149.784L300.701 149.529C301.083 149.826 301.422 150.166 301.804 150.463C301.72 150.633 301.72 150.887 301.677 151.014L305.962 146.729L287.8 128.567C289.242 127.124 290.388 126.488 291.237 126.658C292.128 126.87 293.613 128.016 295.777 130.18L309.144 143.547L318.86 133.831L308.252 123.222C304.984 119.955 302.905 118.045 302.013 117.493C301.122 116.942 299.934 116.602 298.364 116.475ZM282.663 101.622L282.79 101.749C282.493 101.877 282.663 101.877 282.409 101.877L282.663 101.622ZM278.505 100.688C278.505 100.688 279.141 100.476 279.014 100.943C278.887 101.325 278.547 100.9 278.505 100.688ZM277.996 101.961C277.996 101.961 278.293 101.919 278.759 102.216L278.25 102.979C277.996 102.555 278.081 102.385 277.996 101.961ZM291.068 140.406C291.068 140.406 291.068 140.575 291.068 140.66C291.068 141.169 290.686 140.787 290.559 140.66C290.729 140.575 290.898 140.49 291.068 140.406ZM297.009 146.092C297.009 146.092 297.009 146.262 297.009 146.347L296.755 146.347C296.755 146.347 296.585 146.347 296.373 145.965C296.712 145.965 296.585 145.922 297.009 146.092ZM282.581 133.87C282.963 133.743 282.878 133.743 283.345 133.87C282.666 134.295 282.921 134.21 282.581 133.87ZM295.609 146.983C294.973 147.45 295.227 147.365 294.845 146.983C295.27 146.898 295.142 146.856 295.609 146.983ZM294.463 146.092L294.209 146.346L293.954 146.092L294.209 145.837L294.463 146.092ZM281.817 134.125C281.817 134.125 281.817 134.125 282.199 134.252L282.072 134.379L281.817 134.125ZM297.264 152.202C297.264 152.202 297.561 151.99 297.646 152.329C297.434 152.372 297.01 152.457 297.264 152.202ZM291.918 148.128L292.045 148.256C292.045 148.256 291.918 148.383 291.663 148.383L291.918 148.128ZM287.25 147.788L287.377 147.661L287.377 146.388L288.268 145.497L288.523 145.752C288.099 146.6 288.396 146.897 287.377 147.916L287.25 147.788ZM294.718 151.438L294.846 151.565C294.846 151.565 294.676 151.65 294.464 151.693L294.718 151.438ZM291.409 151.183C291.409 151.183 291.324 150.759 291.281 150.547C291.79 150.377 291.366 150.462 291.79 150.547L291.663 150.674C291.663 150.674 291.706 150.971 291.409 151.183ZM292.682 151.947C292.3 152.159 292.427 152.117 292.045 152.074C292.597 151.777 292.215 151.82 292.682 151.947ZM293.064 154.111C293.446 154.154 293.446 153.984 293.318 154.366L293.064 154.111ZM295.1 154.366C295.058 154.748 294.931 154.96 294.591 155.384C293.997 155.215 293.87 155.257 293.573 154.875C294.04 154.578 294.506 154.281 294.973 153.984C295.1 154.281 295.1 154.111 295.1 154.366ZM293.573 152.329C293.573 152.329 293.53 152.541 293.318 152.838C293.106 152.456 293.148 152.414 293.064 152.074C293.445 152.032 293.318 151.99 293.7 152.202L293.573 152.329ZM289.159 147.916L289.414 147.661C289.414 147.661 289.499 147.831 289.159 147.916ZM297.901 154.366C297.392 154.791 297.434 154.748 297.01 154.748L297.646 154.112L297.901 154.366ZM293.445 149.91C292.936 149.741 293.021 149.91 292.681 149.401C293.063 149.274 293.445 149.147 293.827 149.019C293.785 149.062 293.827 149.189 293.827 149.274C293.785 149.571 293.7 149.571 293.445 149.91ZM299.047 152.966L298.41 153.603L298.155 153.348L298.792 152.712L299.047 152.966ZM296.882 150.802C296.755 151.184 296.373 150.717 296.373 150.547C296.5 150.59 297.01 150.335 296.882 150.802ZM298.792 149.911C298.707 150.335 298.537 150.59 298.155 151.057C297.872 150.887 297.66 150.675 297.519 150.42C297.943 149.996 298.325 149.699 298.664 149.529C298.792 149.826 298.749 149.699 298.792 149.911ZM299.81 148.638C299.81 148.638 299.683 149.784 299.301 149.656C299.258 149.275 299.216 148.893 299.173 148.511C299.343 148.426 299.513 148.341 299.64 148.299C299.81 148.553 299.767 148.426 299.81 148.638ZM298.24 146.898C298.24 146.898 298.24 147.577 298.41 148.002C298.367 147.959 298.24 148.002 298.155 148.001C297.688 147.959 297.688 147.789 297.264 147.874C297.264 148.044 297.264 148.214 297.264 148.383L297.137 148.256C296.67 148.214 296.415 147.789 296.246 147.365C296.67 147.365 296.797 147.492 297.264 147.365C297.221 146.898 297.221 146.983 297.646 146.474C297.943 146.601 297.985 146.559 298.367 146.771L298.24 146.898ZM283.048 131.621L282.793 131.367C282.793 131.367 283.175 131.24 283.048 131.621ZM285.593 129.585C285.593 129.585 285.763 129.585 285.848 129.585L286.23 129.967L285.721 130.476C285.721 130.476 285.381 130.306 285.212 130.221C285.212 130.221 285.339 130.009 285.593 129.585ZM295.099 139.685C295.099 139.685 295.439 139.515 295.608 139.43C295.736 139.727 295.736 139.557 295.736 139.812L295.863 139.939C295.863 139.939 295.693 140.024 295.481 140.067C295.142 139.897 295.311 139.982 295.099 139.685ZM287.97 133.998C288.522 133.871 288.14 133.828 288.607 134.125L288.352 134.38L287.97 133.998ZM303.077 148.935L302.823 148.681C302.823 148.681 303.204 148.554 303.077 148.935ZM302.186 146.262L301.677 146.771L302.059 147.153C301.974 147.578 302.016 147.705 301.804 148.172L301.677 148.044C301.337 147.959 301.04 147.917 301.04 147.662C301.125 147.323 301.337 147.111 301.677 146.771C301.21 146.474 301.125 146.559 300.531 146.135C300.489 145.668 300.446 145.201 300.404 144.734C300.743 144.48 300.785 144.437 301.04 144.353C301.083 144.904 301.125 145.456 301.167 146.007C301.677 146.262 301.719 146.05 302.186 146.262ZM292.044 135.526C292.044 135.526 291.916 135.823 291.662 136.162C291.237 135.823 291.322 135.908 291.153 135.399C291.407 135.314 291.662 135.229 291.916 135.144C292.044 135.441 292.044 135.271 292.044 135.526ZM288.648 123.984C288.351 123.687 288.309 123.645 288.266 123.348L288.521 123.348C288.521 123.348 288.648 123.475 288.987 123.645L288.648 123.984ZM281.094 115.497C282.877 117.279 283.725 118.552 283.556 119.316C283.386 120.165 282.75 121.141 281.562 122.329L272.608 113.375C273.838 112.144 274.814 111.508 275.705 111.466C276.554 111.381 277.615 112.017 278.888 113.29L281.094 115.497ZM275.705 110.108L275.323 109.726C275.832 109.556 275.493 109.556 275.96 109.853L275.705 110.108ZM282.282 112.866C281.985 112.994 282.155 112.994 281.9 112.994L282.155 112.739L282.282 112.866ZM282.537 111.593C282.24 111.212 282.155 111.127 282.027 110.83C282.112 110.83 282.197 110.83 282.282 110.83C282.537 110.915 282.579 110.957 282.919 111.212L282.537 111.593ZM260.426 70.475C260.426 70.475 260.468 70.8568 260.511 71.069L261.614 69.9659C261.147 70.0082 260.85 70.1355 260.426 70.475ZM186.617 315.385C186.617 315.385 186.277 315.809 186.023 315.979L186.15 316.106C186.574 316.022 186.787 316.064 187.296 316.234C187.423 315.937 187.381 316.064 187.423 315.852C187.338 315.597 187.423 315.767 187.296 315.47C186.999 315.512 186.829 315.512 186.617 315.385ZM314.23 73.8744C313.763 73.4925 313.211 73.1105 312.66 72.8135C312.575 72.9832 312.448 73.1105 312.278 73.3651C311.726 73.1528 311.726 73.2377 311.387 72.7285C311.641 72.6436 311.811 72.4739 311.938 72.4315C310.665 71.7525 309.308 71.3281 307.822 71.1158C307.653 71.1157 307.525 71.0733 307.356 71.0733C307.271 71.0733 307.186 71.1582 307.101 71.1581C307.059 71.1157 306.974 71.1157 306.931 71.0732C306.083 70.9883 305.234 70.9882 304.47 71.073L304.428 71.1155C304.004 71.5397 304.046 71.4973 303.579 71.4548L303.876 71.1578C302.985 71.2851 302.179 71.4972 301.373 71.7941C301.33 71.8365 301.246 72.0062 301.161 72.0911C301.033 72.0487 300.906 72.0062 300.821 72.0062L300.779 72.0486C300.779 72.0486 300.567 72.0911 300.482 72.091C298.106 73.1092 295.772 74.6789 293.608 76.8428C291.444 79.0066 289.747 81.4675 288.814 83.9285C287.796 86.3894 287.542 88.8504 287.924 91.1842C288.306 93.6029 289.24 95.7246 290.767 97.5917C290.979 97.8887 291.276 98.1858 291.531 98.5253C293.101 100.435 295.647 103.066 299.085 106.503L305.959 113.378C310.118 117.536 313.088 120.337 314.956 121.78C316.823 123.223 318.944 124.157 321.406 124.496C323.867 124.921 326.285 124.539 328.704 123.564C331.165 122.545 333.413 120.976 335.577 118.812C337.868 116.521 339.481 114.145 340.456 111.726C341.39 109.265 341.686 106.847 341.304 104.428C340.88 102.052 339.946 99.93 338.461 98.0204C336.975 96.1957 334.217 93.1828 330.186 89.1514L323.311 82.2768C319.152 78.1181 316.139 75.3597 314.23 73.8744ZM298.235 99.9686L298.49 99.714C298.49 99.714 298.617 99.9262 298.235 99.9686ZM321.278 119.447L320.896 119.065C321.278 119.023 321.108 119.023 321.532 119.192L321.278 119.447ZM295.986 91.8639C295.986 91.8639 295.816 91.9487 295.604 91.9912L295.859 91.7366L295.986 91.8639ZM302.945 98.0596L302.691 97.805C302.691 97.805 302.775 97.805 303.072 97.9323L302.945 98.0596ZM309.48 101.115C309.48 101.115 309.353 101.158 309.141 101.2L309.353 100.988L309.48 101.115ZM302.648 92.501C302.648 93.0101 302.308 92.5858 302.139 92.5009C302.308 92.4161 302.478 92.3312 302.648 92.2464C302.648 92.3312 302.648 92.4161 302.648 92.501ZM305.576 94.4107C305.576 94.4107 305.406 94.4955 305.194 94.5379L305.448 94.2834L305.576 94.4107ZM305.448 93.5196C305.448 93.5196 305.491 93.562 305.321 93.9015L304.685 93.2649C305.109 93.0952 304.981 93.1377 305.321 93.1377C305.448 93.4347 305.448 93.265 305.448 93.5196ZM330.782 112.744C330.527 112.404 330.485 112.362 330.4 112.107L330.655 112.107C330.655 112.107 330.867 112.15 331.164 112.362L330.782 112.744ZM328.745 111.98C328.024 112.701 327.345 112.871 326.581 112.531C325.86 112.149 324.29 110.834 321.956 108.5L303.157 89.7005C301.077 87.6211 300.016 86.2208 299.889 85.4994C299.762 84.7781 299.931 84.1841 300.483 83.6325C301.162 82.9536 301.841 82.784 302.562 83.0811C303.283 83.463 304.599 84.524 306.466 86.3911L324.968 104.893C327.344 107.27 328.702 108.882 329.169 109.688C329.594 110.537 329.424 111.301 328.745 111.98ZM329.381 109.306L329.127 109.052C329.127 109.052 329.212 109.052 329.509 109.179L329.381 109.306ZM300.864 77.395C300.864 77.395 300.864 77.5648 300.61 77.9042C300.27 77.6496 300.397 77.7769 300.1 77.395C300.567 77.1829 300.397 77.2677 300.737 77.2677L300.864 77.1405L300.864 77.395ZM302.774 77.5225C302.774 77.5225 302.477 78.2438 302.264 78.2863C301.883 78.074 302.095 78.1165 301.883 77.6497C302.264 77.4376 302.477 77.3952 302.774 77.2679C302.774 77.3528 302.774 77.4376 302.774 77.5225ZM302.264 76.2495L302.01 76.2495C302.01 76.2495 301.713 76.1222 301.373 75.8675C301.331 75.4857 301.203 75.2735 300.906 74.8916C301.458 74.5946 301.246 74.637 301.797 75.0189C301.882 75.3584 302.179 75.9101 302.264 76.2495ZM301.034 74.0005L300.779 73.7459C300.779 73.7459 300.864 73.7459 301.161 73.8732L301.034 74.0005ZM302.434 74.6371L302.179 74.3825C302.179 74.3825 302.179 74.3825 302.561 74.5098L302.434 74.6371ZM303.579 72.4732C302.943 72.3459 302.9 72.4731 302.561 71.9639C303.155 71.6245 303.197 71.6669 303.834 72.2186L303.579 72.4732ZM304.852 71.9641C305.149 71.6671 305.192 71.7096 305.489 71.5823C305.446 71.6247 305.489 71.752 305.446 71.7945C305.531 72.4734 304.937 72.049 304.852 71.9641ZM306.974 72.813L306.719 73.0675C306.719 73.0675 306.337 73.0251 305.956 72.8129L306.083 72.6856C306.083 72.6856 305.913 72.3461 305.828 72.1764C306.422 71.9218 306.38 72.0491 306.974 72.5584L306.974 72.813ZM308.501 72.8131C308.162 72.9828 308.374 72.9404 308.12 72.9404L308.374 72.6858L308.501 72.8131ZM308.883 72.0918L308.629 71.8372C308.629 71.8372 308.671 71.8796 308.968 72.0069L308.883 72.0918ZM317.328 77.6512L317.455 77.7785C317.455 77.7785 317.285 77.7784 317.2 77.7784C316.988 77.736 317.031 77.6935 316.691 77.5238C317.2 77.3541 316.734 77.3965 317.2 77.5238L317.328 77.3966L317.328 77.6512ZM316.055 75.6143L315.8 75.8689L315.715 75.784C315.715 75.784 315.63 75.784 315.333 75.6567C315.503 75.5718 315.673 75.487 315.842 75.4021L316.055 75.6143ZM387.64 109.863C386.962 110.627 386.537 111.051 386.537 111.051L387.725 109.863C387.725 109.863 387.683 109.906 387.64 109.863ZM138.275 184.478C138.275 184.478 138.105 184.818 138.063 185.03L138.529 184.563C138.529 184.563 138.36 184.478 138.275 184.478Z" fill="#FF4713"/>
<path fill-rule="evenodd" clip-rule="evenodd" d="M364.081 41.4184C364.081 41.4184 363.953 41.3759 363.911 41.3335L363.953 41.2911C360.049 37.387 356.06 33.398 352.071 29.4939C349.143 26.5658 346.215 23.7226 343.414 20.9219C343.372 21.134 343.245 21.2613 343.033 21.4735C342.693 21.4168 342.354 21.5017 342.014 21.728C342.269 22.322 342.651 22.5342 342.396 23.1282C342.311 23.892 341.76 24.1041 341.123 24.6557C340.36 24.5707 339.978 24.7829 339.087 24.1463C339.256 23.8069 339.553 23.425 339.978 23.0007C340.657 23.2554 340.826 23.3403 341.505 22.7463C341.293 22.0249 341.505 21.4733 341.505 20.7096L342.141 20.0731C342.141 20.0731 342.481 20.2429 342.651 20.3278L342.82 20.3278C341.675 19.2669 340.571 18.1636 339.51 17.1027C339.383 17.3148 339.256 17.5269 339.256 17.6967C339.256 18.0361 339.468 18.5029 339.638 18.8424L338.747 19.4788C338.747 19.4788 338.492 19.3939 338.365 19.3515C338.534 18.5028 338.619 17.145 337.983 16.6782L338.492 16.1691C338.492 16.1691 338.577 16.1691 338.619 16.2115L334.036 11.6284L333.994 11.6709C333.442 11.5435 333.357 11.4586 333.187 11.1192C333.357 11.1192 333.442 11.1192 333.569 11.1616L331.829 9.42177L331.787 9.46422C331.787 9.46422 331.066 9.76116 330.769 9.97329C330.599 9.88843 330.429 9.80353 330.259 9.71867C330.599 9.37923 330.981 8.99738 331.066 8.65793L330.302 7.89409L330.259 7.93653C330.259 7.93653 330.217 8.14866 330.005 8.44566C329.665 8.10617 329.623 7.97888 329.496 7.68185C329.623 7.63944 329.75 7.59702 329.877 7.55461C329.92 7.59704 330.047 7.63947 330.09 7.68191C327.374 4.96601 324.955 2.46229 322.833 0.255641L275.229 47.8599C275.229 47.8599 275.059 48.4539 275.059 48.7085C274.762 48.8358 274.932 48.8358 274.677 48.8358C274.465 48.7933 274.635 48.8782 274.338 48.7509L259.233 63.8553C259.233 63.8553 259.658 64.025 259.997 64.2797C259.912 64.5343 259.87 64.5767 259.615 64.9161C259.361 64.8312 259.106 64.5766 258.809 64.2796L187.275 135.813C180.954 142.05 160.503 162.585 141.241 181.848C141.411 181.848 141.453 181.89 141.708 182.06C141.411 182.781 141.326 183.29 140.817 183.969C140.605 183.927 140.393 183.884 140.18 183.842C140.096 184.266 140.138 184.393 139.926 184.86C139.459 184.733 139.035 184.648 138.526 184.563L137.974 185.115C137.592 185.751 137.38 186.218 136.659 186.854C136.532 186.812 136.404 186.854 136.277 186.812C121.47 201.619 108.147 214.857 103.82 219.099C99.4495 223.639 93.0853 230.513 86.2969 237.895C86.6788 237.938 86.9334 238.192 87.4426 238.617C86.8911 239.762 86.7214 240.781 86.0426 241.799C85.6607 241.332 85.2788 240.865 84.8968 240.399C84.9817 240.059 84.9392 240.017 85.1514 239.635L85.406 239.635C85.7455 240.059 85.406 240.144 86.0425 240.017L85.9152 239.889C85.7878 239.253 85.4908 239.21 85.7877 238.489C82.4784 242.138 79.0417 245.914 75.6475 249.648L75.5202 249.775C75.1808 250.199 74.799 250.581 74.502 250.963C74.5868 250.878 74.5444 250.921 74.8839 251.175L74.7566 251.303L74.6293 251.175C74.6293 251.175 74.502 251.133 74.3747 251.09C73.7807 251.769 73.1443 252.406 72.5927 253.042C72.5927 253.042 72.6069 253.085 72.6352 253.169C72.4231 253.636 72.2958 253.933 71.8715 254.442C71.6594 254.485 71.2775 254.697 71.1078 254.697L71.0653 254.739C65.2528 261.146 59.8644 267.043 56.0035 271.329C60.5009 267.171 66.9076 261.358 73.8659 255.079L73.8235 255.121C73.8235 255.121 73.6113 255.079 73.5264 255.079C73.5688 254.697 73.4839 254.358 73.399 253.933C73.9506 253.636 74.4174 253.764 75.0115 254.018C80.612 248.927 86.5944 243.539 92.1101 238.532C98.4319 232.72 104.202 227.374 108.19 223.47C113.282 218.294 130.126 201.45 147.521 184.055C147.182 183.97 147.351 184.055 147.182 183.715C147.309 183.588 147.521 183.545 147.691 183.461C147.776 183.715 147.818 183.588 147.776 183.8L154.649 176.927C153.97 176.502 153.249 176.036 152.867 175.229C153.093 175.06 153.305 174.932 153.503 174.847C153.8 175.399 153.715 175.823 154.14 175.993C154.946 175.781 155.116 175.017 155.964 175.611L157.831 173.745L157.789 173.617C157.831 173.575 157.874 173.532 158.001 173.575L160.504 171.072C159.91 170.902 159.783 170.265 159.698 169.671C160.377 169.332 160.716 169.587 161.31 170.266L162.498 169.078C162.498 169.078 162.329 168.908 162.159 168.738C162.159 168.314 161.947 168.017 161.734 167.635C162.074 167.38 161.989 167.38 162.244 167.38C162.498 167.38 162.583 167.465 162.88 167.762C162.88 168.102 163.007 168.314 163.007 168.568L222.152 109.424C222.152 109.424 222.11 109.381 222.067 109.339L222.576 108.83L222.661 108.915L228.941 102.635L228.346 102.041C228.346 102.041 228.346 101.871 228.346 101.787L228.601 101.532C228.601 101.532 228.94 101.532 229.11 101.532C229.238 101.829 229.238 101.659 229.238 101.914C229.28 102.041 229.322 102.084 229.365 102.211L236.196 95.3801C236.196 95.3801 235.814 94.9981 235.602 94.786C236.153 94.489 236.323 94.489 236.832 94.7437L243.79 87.7855L243.706 87.7006C243.706 87.7006 243.875 87.5309 244.045 87.5309L249.9 81.6758C249.985 81.2515 249.942 81.0393 249.773 80.615C250.367 80.021 250.749 79.9786 251.3 79.8514L251.3 80.106C251.3 80.106 251.3 80.2757 251.258 80.3181L259.871 71.7052C259.319 71.4082 258.682 70.9413 258.64 70.7292C258.682 70.2624 259.276 69.1593 259.531 69.0744C259.913 69.2018 259.955 69.4988 260.295 69.5837C260.507 69.5413 260.592 69.4564 260.931 69.2018C260.761 68.8624 260.464 68.4805 260.04 68.0561C259.658 67.3347 258.979 68.0984 258.512 66.783C258.979 66.4012 259.446 66.0193 259.87 65.6799C260.04 65.6799 260.21 65.6799 260.379 65.68C260.507 66.0618 260.464 66.6135 260.676 66.9105C261.058 67.8016 261.992 67.8017 262.204 68.4382C262.162 68.9049 262.077 69.3292 261.78 69.796L318.124 13.4515C318.124 13.4515 317.997 13.3242 317.997 13.1545C318.167 13.1545 318.294 13.1121 318.464 13.1121L321.9 9.67544C321.9 9.67544 321.816 9.67545 321.773 9.63302C321.858 9.54815 321.943 9.4633 322.113 9.46332L322.834 8.74201L324.913 10.8214C324.913 10.8214 324.871 10.6092 324.786 10.3546L325.168 9.97277C325.762 10.1426 326.228 10.1002 326.823 10.3548L326.695 10.4821C326.695 10.4821 326.653 10.6943 326.441 10.9913C326.101 10.9912 325.635 11.0336 325.21 11.1184L326.823 12.731C326.823 12.731 326.865 12.434 327.077 12.137L327.841 12.6462C327.841 12.6462 327.714 13.1129 327.502 13.41C344.221 30.2145 372.144 58.0525 384.705 70.274L405.923 89.7097C404.438 91.3644 392.558 104.432 388.146 109.269C388.146 109.269 388.188 109.397 388.273 109.481L408.978 90.6435L409.954 89.6677L408.978 88.6068L388.609 66.3706C387.335 65.0126 385.893 63.485 384.365 61.8724C384.153 61.83 384.195 61.7876 383.941 61.6178C383.983 61.5754 384.025 61.5329 383.941 61.4481C383.219 60.7266 382.54 59.9628 381.819 59.2414C381.819 59.4111 381.776 59.5384 381.649 59.8354L381.013 59.1989C381.013 59.1989 380.8 59.1565 380.503 58.9443C380.843 58.7746 381.055 58.6473 381.267 58.6897C376.26 53.5126 370.319 47.5716 364.081 41.4184ZM340.359 20.5821C340.359 20.5821 340.699 20.4125 340.741 20.7095C340.529 20.8368 340.105 20.9216 340.359 20.5821ZM332.296 10.7372L332.551 10.4826L332.805 10.7373L332.551 10.9918L332.296 10.7372ZM326.228 3.90513L326.101 4.0324L325.973 3.9051C325.973 3.9051 325.888 3.98995 325.591 3.77776C326.058 3.6505 325.719 3.65048 326.228 3.90513ZM324.318 3.01384C324.318 3.01384 324.488 3.35333 324.573 3.52306L324.318 3.52305C324.318 3.52305 324.106 3.48059 323.809 3.26842C323.979 3.18356 324.149 3.0987 324.318 3.01384ZM325.337 5.30528C325.337 5.30528 325.846 5.64478 326.101 5.81454C326.058 5.85696 326.101 5.98426 326.058 6.02668C326.016 6.06911 325.931 6.0691 325.846 6.06909C325.549 6.02664 325.379 5.8569 325.082 5.55985L325.337 5.30528ZM328.095 8.57279C328.095 8.57279 328.392 8.53037 328.859 8.82745C328.944 9.33664 329.368 9.67614 329.241 10.2278L329.114 10.1005C329.114 10.1005 328.774 10.0155 328.477 9.7185C328.435 9.42146 328.223 8.95468 328.095 8.57279ZM85.7881 242.817C85.7881 242.817 85.7457 243.029 85.5336 243.326C85.3639 243.241 85.1941 243.157 85.0244 243.072C84.8122 243.029 84.9395 243.072 84.6425 242.944L84.1333 243.454C84.1333 243.454 83.6241 243.114 83.2422 242.817C83.2422 242.562 83.1998 242.435 83.1149 242.18C83.1997 242.18 83.2846 242.181 83.3695 242.181C83.8786 242.181 84.0908 242.393 84.6425 242.944C84.9819 242.775 85.3214 242.605 85.6608 242.435C85.7881 242.732 85.7457 242.605 85.7881 242.817ZM84.515 241.29C84.515 241.29 84.515 241.374 84.3878 241.671C83.9634 241.587 83.8362 241.629 83.3694 241.417L83.8785 240.908C83.8785 240.908 84.218 241.077 84.3877 241.162L84.515 241.035C84.515 241.035 84.515 241.205 84.515 241.29ZM86.6792 242.945L86.2973 242.563C86.8065 242.393 86.4246 242.435 86.9338 242.69L86.6792 242.945ZM133.223 195.892C132.586 196.274 132.841 196.189 132.459 195.892C132.629 195.807 132.798 195.722 132.968 195.637L133.223 195.892ZM133.222 193.091L132.586 192.455C133.053 192.412 132.968 192.412 133.477 192.837L133.222 193.091ZM136.787 194.11C136.914 194.916 136.023 194.365 135.896 194.237L136.405 193.728L136.66 193.728C136.66 193.728 136.744 193.898 136.787 194.11ZM134.113 189.4C134.58 189.357 134.58 189.442 135.132 189.909C135.132 189.909 135.004 190.121 134.75 190.546C134.071 190.206 134.241 190.036 134.113 189.4ZM137.296 191.819C137.296 191.819 137.126 191.904 136.914 191.946L137.169 191.691L137.296 191.819ZM137.041 189.018C136.829 189.57 136.532 190.291 136.15 190.418C135.895 190.418 136.108 190.376 135.768 190.291C135.811 189.994 135.895 189.739 135.895 189.4C136.277 189.018 136.574 188.806 136.914 188.636C136.956 188.764 136.999 188.891 137.041 189.018ZM144.254 185.37C143.872 185.412 143.193 186.006 142.854 186.261C142.557 186.133 142.472 186.049 142.09 185.751C142.048 185.539 141.92 185.242 141.835 184.988L142.726 184.097C143.236 184.182 144.381 184.479 144.509 184.861C144.466 185.073 144.424 185.03 144.254 185.37ZM146.291 184.352C146.291 184.352 146.121 184.352 146.036 184.352C145.612 184.267 145.569 184.054 145.4 183.715C145.866 183.673 145.781 183.673 146.291 184.097C146.248 184.139 146.291 184.267 146.291 184.352ZM144.381 181.424C144.381 181.424 144.339 181.636 144.126 181.933C143.787 181.678 143.829 181.805 143.617 181.424C143.815 181.226 144.027 181.098 144.254 181.042C144.254 181.042 144.381 181.169 144.381 181.424ZM148.157 178.666C148.242 179.684 147.054 180.533 146.503 181.594L146.248 181.339C146.715 179.684 146.29 179.854 145.739 178.284C146.248 178.284 146.927 178.708 147.393 178.92C147.903 178.411 147.903 178.242 148.412 178.411L148.157 178.666ZM149.303 176.502C149.303 176.502 149.133 176.502 149.048 176.502C148.666 176.375 148.921 176.459 148.666 176.12C149.048 176.078 148.878 176.078 149.303 176.247C149.26 176.29 149.303 176.417 149.303 176.502ZM150.957 173.574C151.382 173.489 151.254 173.447 151.721 173.574C151.042 173.999 151.297 173.914 150.957 173.574ZM155.625 173.49L155.243 173.108C155.752 172.938 155.413 172.938 155.879 173.235L155.625 173.49ZM156.516 172.344C156.516 172.344 155.667 172.005 155.37 171.962C154.988 172.344 155.243 172.174 154.861 172.471C154.734 172.174 154.606 171.877 154.479 171.58C155.243 171.241 156.176 170.647 157.025 171.326C156.855 171.75 156.77 172.259 156.516 172.344ZM156.388 168.143C156.261 168.525 155.879 168.059 155.879 167.889C156.006 167.931 156.515 167.677 156.388 168.143ZM160.079 166.998C159.74 167.168 159.91 167.083 159.698 167.125L159.952 166.871L160.079 166.998ZM213.072 110.696C213.072 110.696 212.478 110.866 212.69 110.569C212.775 110.569 213.029 110.399 213.072 110.696ZM219.776 111.121L219.521 111.375C219.267 111.036 219.267 110.951 219.14 110.739C219.734 110.739 219.352 110.612 219.776 111.121ZM218.375 106.156C218.757 106.114 218.63 106.071 219.012 106.284C218.375 106.496 218.715 106.496 218.375 106.156ZM221.049 106.284C220.455 106.453 220.539 106.284 220.285 106.029C220.836 105.987 220.794 105.859 221.049 106.284ZM220.794 105.265C220.03 105.18 219.733 105.562 218.884 104.883C218.884 104.883 219.012 104.671 219.266 104.247C219.945 104.417 220.454 104.332 221.176 104.883L220.794 105.265ZM222.321 105.775L221.303 104.756C221.642 104.417 221.897 104.247 222.194 104.12C222.321 104.587 222.364 104.968 222.576 105.52L222.321 105.775ZM224.613 106.284L224.358 106.539L224.104 106.284L224.358 106.029L224.613 106.284ZM225.631 105.775L225.504 105.648C225.504 105.648 225.419 105.648 225.122 105.52C225.504 105.478 225.334 105.478 225.758 105.648L225.631 105.775ZM226.734 102.126C226.182 101.744 226.395 101.702 226.225 101.107C226.692 101.065 226.607 101.065 227.116 101.489C226.989 101.702 226.989 101.786 226.734 102.126ZM226.988 99.8346L226.734 99.8346C226.861 99.4527 226.819 99.4103 227.116 98.9435L227.498 99.3255C227.116 99.7073 227.243 99.7497 226.988 99.8346ZM229.662 100.98L229.789 101.108C229.789 101.108 229.619 101.108 229.534 101.108C229.322 101.065 229.45 101.108 229.153 100.98C229.322 100.896 229.492 100.811 229.662 100.726C229.619 100.768 229.662 100.896 229.662 100.98ZM229.28 99.5802C229.28 99.5802 229.152 99.7075 228.898 99.7075L229.152 99.4529L229.28 99.5802ZM228.134 98.1799L227.625 97.6706C227.625 97.6706 227.582 97.2887 227.497 97.0341C227.837 96.8644 228.176 96.8645 228.516 97.0342C228.516 97.0342 228.346 97.6282 228.389 97.9253L228.134 98.1799ZM231.062 98.562C231.062 98.562 230.765 99.1136 230.425 99.453L229.789 98.8165C230.298 98.3922 230.553 98.4771 231.062 98.3074L231.062 98.562ZM238.614 86.4272C238.104 85.9179 237.977 85.9603 237.722 85.536C238.274 85.4936 238.359 85.6634 238.868 86.1726L238.614 86.4272ZM243.196 84.9C243.069 85.7062 243.663 86.2155 243.324 87.0641C243.239 87.4884 242.645 87.9975 242.178 88.4642C241.796 88.252 241.457 87.9974 241.032 87.573C240.99 87.3609 240.905 87.1063 240.905 86.9366C241.075 86.2576 242.263 84.8999 242.687 84.3908L243.196 84.9ZM245.233 86.1732L245.106 86.0459C244.512 85.961 243.917 85.4517 243.705 85.1547C244.299 85.0699 244.809 85.3245 245.487 85.9186L245.233 86.1732ZM246.506 82.8636C246.506 82.8636 246.506 82.6939 246.506 82.609L246.378 82.4817C246.76 82.2696 247.142 82.0575 247.481 81.8878C247.991 81.9727 248.033 81.8454 248.627 82.2697C247.736 82.991 247.312 82.8212 246.506 82.8636ZM250.918 77.4327C251.003 78.0268 250.918 78.1965 250.282 78.8329C250.154 78.7905 250.027 78.748 249.9 78.7056C250.027 78.3237 250.197 77.8145 250.154 77.4327C250.536 77.2205 250.579 77.263 250.918 77.1781C250.96 77.2206 250.918 77.3479 250.918 77.4327ZM268.865 55.9214C269.119 56.176 269.459 56.3458 269.756 56.558C269.629 56.8549 269.544 56.9398 269.247 57.3217C269.119 57.1944 268.907 57.1519 268.738 57.067C268.737 56.473 268.525 56.5154 268.865 55.9214ZM267.847 57.958C267.422 58.0429 267.55 58.0004 267.083 57.7034C267.677 57.6186 267.592 57.5337 267.847 57.958ZM261.779 64.5344C261.779 64.5344 261.737 64.7466 261.525 65.0436C261.058 64.9162 260.931 65.0435 260.379 64.6616C260.549 64.3221 260.464 64.4919 260.506 64.2797C260.846 64.0252 260.803 64.0676 261.016 64.0252C261.397 64.0676 261.737 64.3223 261.779 64.5344ZM265.853 63.5164C265.259 63.3466 264.877 63.3042 264.58 62.7525C265.174 62.4131 265.598 62.4132 266.235 62.88C266.065 63.1345 266.107 63.177 265.853 63.5164ZM266.362 61.9889L266.107 61.7343C266.574 61.4373 266.192 61.4797 266.744 61.6071L266.362 61.9889ZM265.343 59.6975L266.234 58.8065C266.234 58.8065 266.913 58.8066 267.21 58.849L267.337 58.7217C267.337 58.7217 267.337 58.8915 267.337 58.9763C267.253 59.4006 266.574 59.9946 266.107 60.4613C265.64 60.2491 265.555 60.1643 265.343 59.6975ZM269.884 60.5041C269.205 60.3343 268.865 60.504 268.144 59.9524C268.101 59.7402 268.059 59.6129 267.974 59.3583L269.629 57.9582C269.629 57.9582 269.798 57.9582 269.883 57.9582C270.477 58.4675 270.987 58.5524 271.156 58.9767C271.072 59.401 270.35 60.0374 269.884 60.5041ZM270.902 57.7037C270.562 57.534 270.774 57.6613 270.52 57.3218C270.803 57.2652 271.1 57.3077 271.411 57.4492C271.029 57.5764 271.199 57.6613 270.902 57.7037ZM272.047 55.0306C271.92 55.4973 271.962 55.5398 271.538 56.0489C270.774 56.0489 270.604 56.4732 270.138 55.6669C270.689 55.2002 271.241 54.9881 271.792 54.776L272.047 55.0306ZM274.296 50.7452L274.423 50.8725C274.423 50.8725 274.253 50.8725 274.168 50.8725C273.914 50.7876 273.871 50.7452 273.532 50.4905L273.786 50.236C274.168 50.6179 274.253 50.4482 274.296 50.7452ZM276.332 50.2362C276.332 50.2362 276.29 50.4484 276.078 50.7454C275.993 50.7454 275.908 50.7453 275.823 50.7453C275.314 50.321 275.314 50.4058 275.059 49.9815C275.568 49.8118 275.781 49.8543 276.205 49.8543C276.332 50.1513 276.332 49.9816 276.332 50.2362ZM305.565 17.9482C305.904 18.0331 305.904 17.8634 305.819 18.2028L305.565 17.9482ZM290.801 39.8417L290.546 39.5871C290.546 39.5871 290.588 39.5447 290.885 39.7569L290.801 39.8417ZM309.002 21.1309C309.002 21.6401 308.62 21.2582 308.493 21.1308C308.663 21.046 308.832 20.9611 309.002 20.8763L309.002 21.1309ZM322.282 8.36011L322.028 8.61466L321.773 8.36004L322.028 8.1055L322.282 8.36011ZM320.245 6.06859L320.245 6.57777C319.948 6.70505 320.076 6.66261 319.863 6.70502C319.439 6.62012 319.397 6.40796 319.227 6.06848C319.609 5.85636 319.778 5.77154 320.118 5.6867C320.245 5.98373 320.245 5.81401 320.245 6.06859ZM329.241 11.5007C329.241 11.5007 329.538 11.4583 330.005 11.7553L329.751 12.0099L329.241 11.5007ZM332.509 15.0228C332.509 15.0228 332.594 15.0228 332.891 15.1502L332.763 15.2775L332.509 15.0228ZM334.418 17.1871C334.418 17.1871 334.419 17.3568 334.419 17.4416C334.376 17.3992 334.249 17.4416 334.164 17.4416C333.824 17.3567 334.037 17.3992 333.782 17.0597C334.164 17.0173 333.994 17.0173 334.418 17.1871ZM326.441 9.46371C326.441 9.46371 326.313 9.59099 326.059 9.59095L326.313 9.33641L326.441 9.46371ZM322.027 5.81413L321.773 6.06873C321.179 5.89895 321.051 5.8565 320.754 5.30487C321.306 5.17761 321.433 5.13519 322.027 5.55955L322.027 5.81413ZM341.887 26.1833C341.887 26.1833 341.972 26.1833 342.269 26.3106L342.142 26.4379L341.887 26.1833ZM384.281 67.0491L384.026 67.0491C384.026 67.0491 383.856 67.0491 383.644 66.6672C384.026 66.6248 383.856 66.6248 384.281 66.7945C384.323 66.837 384.281 66.9642 384.281 67.0491ZM380.631 64.9272C380.631 64.9272 380.292 64.7574 380.122 64.6726C379.613 64.5876 379.57 64.4603 379.358 64.1633L380.376 63.145C380.801 63.3148 381.268 63.3572 381.395 63.6543C381.268 64.0362 380.928 64.5453 380.631 64.9272ZM348.337 30.8514C348.026 31.1626 347.814 31.1201 347.701 30.7241C347.701 30.7241 348.04 30.5543 348.21 30.4695C348.337 30.7665 348.295 30.6392 348.337 30.8514ZM345.706 24.6561L345.961 24.4015L346.47 24.9108L346.47 25.1653C346.13 25.335 346.3 25.2502 346.088 25.2926C345.833 25.2926 345.876 25.2502 345.579 25.038C345.706 24.741 345.664 24.8682 345.706 24.6561ZM345.706 25.6745L345.833 25.8018C345.494 25.9715 345.664 25.8866 345.452 25.929L345.706 25.6745ZM350.247 29.7059L350.247 29.9605C350.247 29.9605 350.247 30.1302 349.992 30.2151C349.738 30.215 349.907 30.215 349.61 30.0877C349.907 29.7907 349.992 29.8756 350.247 29.7059ZM374.563 54.7854L374.308 55.04L374.053 54.7853C374.053 54.7853 373.841 54.7429 373.544 54.5307C374.096 54.3186 373.968 54.2761 374.563 54.7854ZM349.356 31.1061C349.554 30.9647 349.724 30.8798 349.865 30.8516L349.738 30.9788C349.738 30.9788 349.695 31.0212 349.61 31.3607L349.356 31.1061ZM376.048 57.7982C376.048 57.7982 376.387 57.6285 376.557 57.5437L376.812 57.7983C376.175 58.265 376.43 58.1801 376.048 57.7982ZM380.249 61.4902L379.994 61.4901C379.613 61.3628 379.825 61.4901 379.613 61.1082C379.994 61.0658 379.825 61.0658 380.249 61.2356L380.249 61.4902ZM377.703 58.1802L377.83 58.3075C377.491 58.4772 377.703 58.4348 377.448 58.4348L377.703 58.1802ZM382.413 62.3814L382.54 62.5087C382.54 62.5087 382.286 62.5936 382.159 62.636C381.989 62.5511 381.819 62.4662 381.649 62.3814C382.031 62.1692 381.904 62.2117 382.286 62.2541L382.413 62.1269C382.413 62.1269 382.413 62.2966 382.413 62.3814ZM362.511 41.2061L362.001 41.7152L361.789 41.503L362.298 40.9939L362.511 41.2061ZM347.743 25.9292C347.403 26.0989 347.573 26.0141 347.361 26.0565C346.937 25.9716 346.894 25.7594 346.725 25.4199C347.234 25.1654 347.106 25.2078 347.743 25.6747L347.743 25.9292Z" fill="#FF4713"/>
<path fill-rule="evenodd" clip-rule="evenodd" d="M363.916 81.4744L359.502 77.0611L355.217 81.3463C355.217 81.3463 355.514 81.3888 355.811 81.601C355.684 81.8131 355.387 82.6193 354.92 82.492C354.92 82.2374 354.835 81.9828 354.835 81.7282L353.138 83.4253L320.929 51.2165L313.165 58.9809L313.292 59.1082C313.292 59.1082 313.123 59.193 312.911 59.2354L310.492 61.6538L350.764 101.925L367.565 85.1239L364.425 81.9836C364.425 81.9836 364.467 82.0261 364.425 82.1534L364.17 82.4079C363.492 82.0684 363.407 82.323 363.025 81.7714L363.534 81.2622C363.534 81.2622 363.831 81.3895 363.916 81.4744ZM318.088 65.9401L318.088 66.1947C318.088 66.1947 317.918 66.1947 317.833 66.1947C317.621 66.1522 317.791 66.2371 317.451 66.0674C317.961 65.7279 317.579 65.7704 318.088 65.9401ZM345.035 92.8869L345.162 93.0142C344.865 93.1414 345.077 93.099 344.78 93.1414C344.568 93.099 344.61 93.0565 344.271 92.8868C344.61 92.6322 344.695 92.6322 344.907 92.505C345.077 92.7596 345.035 92.6323 345.035 92.8869ZM342.531 86.5643C342.87 86.2249 342.997 86.1824 343.294 86.0552C343.294 86.14 343.294 86.2249 343.294 86.3098C343.252 86.5219 343.167 86.6068 342.912 86.9462L342.531 86.5643ZM347.453 90.9776C347.029 90.8927 346.901 90.5957 346.689 90.2138C347.241 90.0865 347.411 90.0866 347.962 90.4685C347.58 90.8504 347.708 90.8928 347.453 90.9776ZM353.776 94.7547L353.521 94.7547C353.521 94.7547 353.394 94.7122 353.139 94.3727C353.521 94.3303 353.351 94.3303 353.776 94.5001C353.776 94.585 353.776 94.6698 353.776 94.7547ZM318.469 59.1935C318.342 59.5754 318.002 59.151 317.96 58.9389C318.087 59.0662 318.639 58.7692 318.469 59.1935ZM355.303 93.2273C355.303 93.2273 355.133 92.8878 355.049 92.7181C355.43 92.6757 355.261 92.6756 355.685 92.8454L355.303 93.2273ZM351.781 86.9046L351.526 86.65C351.526 86.65 351.569 86.6924 351.908 86.7773L351.781 86.9046ZM347.495 82.6186L347.367 82.4913C347.367 82.4913 347.24 82.5337 346.986 82.3639C347.452 82.2367 347.07 82.1942 347.622 82.4913L347.495 82.6186ZM357.339 80.5827C357.339 80.5827 356.702 80.7948 356.957 80.4554C357.042 80.4554 357.296 80.2857 357.339 80.5827ZM364.553 86.5239L364.298 86.5239C364.298 86.5239 363.534 86.0995 363.152 85.6327L363.534 85.2508L364.043 85.2509C364.213 85.6752 364.383 86.0995 364.553 86.5239Z" fill="#FF4713"/>
<path fill-rule="evenodd" clip-rule="evenodd" d="M357.173 137.952C357.173 137.952 357.258 138.036 357.343 138.037L357.343 138.291L357.089 138.291C357.089 138.291 357.004 138.206 356.961 138.164C342.79 150.977 327.771 165.487 312.709 180.464C313.303 180.21 313.982 180.295 314.618 180.762C314.491 181.653 315.127 182.204 314.533 183.138L314.406 183.01C313.939 183.307 314.321 183.265 314.406 183.52C314.534 184.58 315.382 185.514 314.916 186.575C314.491 186.405 314.491 186.49 314.025 186.193C314.109 185.344 313.643 184.198 313.006 183.392C312.497 183.477 312.539 183.519 311.988 183.137C311.945 182.925 311.86 182.84 311.606 182.501C311.69 182.162 311.648 182.119 311.86 181.737L311.987 181.865C312.412 181.949 313.091 182.798 313.515 182.883C313.812 182.841 314.024 182.628 314.406 182.247C314.321 182.077 314.236 181.907 314.151 181.737C313.982 181.143 313.303 181.058 312.666 180.507C311.945 181.228 311.181 181.907 310.502 182.671L310.587 182.755C310.29 183.137 309.993 183.519 309.696 183.901L309.484 183.689C283.179 209.74 257.001 236.766 235.575 257.768C221.488 272.109 204.645 288.698 187.122 306.051C187.504 306.263 187.97 306.645 188.31 307.07C188.31 307.155 188.31 307.24 188.31 307.324C187.504 307.706 187.037 308.173 186.188 307.409C186.146 307.197 186.188 307.324 186.103 307.07L182.667 310.506C182.667 310.506 182.836 310.337 183.006 310.337C183.049 310.464 183.091 310.591 183.134 310.718C182.964 311.143 183.049 311.312 182.752 311.355C182.412 311.27 182.327 311.185 182.242 310.931C181.012 312.076 179.867 313.222 178.679 314.41C178.891 314.282 178.976 314.282 179.188 314.155C179.357 314.41 179.315 314.282 179.357 314.495L179.485 314.622C179.145 314.792 179.357 314.749 179.103 314.749C178.848 314.749 178.891 314.707 178.594 314.494C166.077 327.011 153.349 339.739 141.342 352.171C141.045 352.552 140.875 352.807 140.663 352.849L140.578 352.934C125.092 369.015 110.667 384.628 98.9991 398.587C105.491 393.199 112.237 387.217 119.322 380.81L119.237 380.725C119.237 380.725 119.45 380.598 119.577 380.556C123.311 377.161 127.129 373.597 131.033 369.949C131.033 369.779 130.948 369.694 130.905 369.567C130.608 369.694 130.354 369.864 130.014 370.203C129.873 370.005 129.788 369.835 129.76 369.694C129.76 369.694 130.141 369.057 130.523 368.676L130.778 368.676C131.075 368.888 131.414 369.142 131.711 369.355C133.027 368.039 134.427 366.724 135.827 365.409C135.742 365.154 135.785 365.197 135.572 364.9L135.827 364.645C135.827 364.645 136.124 364.942 136.209 365.027C139.306 362.099 142.403 359.172 145.543 356.117C145.416 355.99 145.373 355.863 145.288 355.693C145.67 355.481 145.67 355.566 146.052 355.438L146.052 355.608C158.314 343.771 170.788 331.297 183.049 319.035L184.322 317.762C183.898 317.847 183.643 317.932 183.601 317.889C183.813 316.914 183.686 316.107 183.473 315.216L183.728 315.216C184.195 315.174 183.983 315.131 184.492 315.471C184.407 315.98 184.577 316.574 185.001 316.744C185.213 316.702 185.171 316.659 185.51 316.489C185.34 315.895 185.213 315.938 185.637 315.344L185.892 315.598C185.892 315.598 185.892 315.768 186.019 315.98C186.274 315.811 186.444 315.641 186.613 315.386C186.486 315.344 186.444 315.301 186.274 315.217C186.401 314.919 186.444 314.792 186.783 314.453C186.868 314.453 186.953 314.453 187.038 314.453C187.122 314.538 187.207 314.623 187.335 314.665C206.173 295.742 224.247 277.328 239.776 262.054C252.25 249.326 266.93 234.815 282.331 219.584C281.864 219.541 281.992 220.008 281.185 219.456C280.803 219.838 280.931 219.881 280.676 219.966C280.464 219.923 280.591 219.966 280.294 219.838C280.464 219.329 280.506 219.117 281.058 218.565C281.228 218.65 281.397 218.735 281.567 218.82C281.864 218.862 282.289 219.032 282.628 219.287L283.858 218.056C283.477 217.759 283.561 217.929 283.349 217.547L283.986 216.911C283.986 216.911 284.155 216.911 284.24 216.911C284.368 217.208 284.325 217.08 284.368 217.293C284.283 217.547 284.155 217.674 283.943 217.972L285.556 216.359L285.471 216.274L285.725 216.02L285.81 216.105L287.041 214.874C288.653 213.347 290.265 211.735 291.877 210.122L292.089 209.825C295.95 206.134 299.769 202.316 303.587 198.497C303.587 198.497 303.545 198.483 303.46 198.455C302.781 198.455 302.909 198.752 302.187 198.2C302.357 197.436 302.229 196.715 302.06 196.036L302.314 196.036C303.036 195.994 302.484 196.291 303.078 196.545C303.46 196.672 304.775 195.782 304.86 196.8C304.818 197.012 304.775 197.224 304.691 197.394C309.358 192.727 313.982 188.102 318.565 183.435C318.48 183.35 318.31 183.265 318.14 183.096C318.267 182.544 318.183 182.205 318.013 181.695C318.649 181.314 318.861 181.356 319.54 181.95C319.498 182.162 319.498 182.332 319.54 182.459C324.335 177.58 329.087 172.743 333.754 167.991C333.754 167.991 333.839 167.652 334.093 167.312C334.305 167.27 334.136 167.355 334.475 167.185C350.089 151.062 364.641 135.322 376.351 121.235C370.241 126.327 363.835 131.969 357.173 137.952ZM106.169 390.483C106.636 390.186 106.721 390.102 107.188 390.229C106.509 390.908 106.551 390.865 106.169 390.483ZM112.364 386.58C112.237 386.962 111.855 386.495 111.855 386.326C112.025 386.326 112.534 386.071 112.364 386.58ZM113.382 384.544L113.51 384.671C113.51 384.671 113.34 384.756 113.128 384.798C112.746 384.671 113 384.756 112.746 384.416C112.915 384.331 113.085 384.247 113.255 384.162C113.382 384.459 113.34 384.331 113.382 384.544ZM118.686 378.985C118.686 379.495 118.431 380.004 118.431 380.513C118.134 380.64 118.262 380.598 118.049 380.64C117.837 380.598 117.965 380.64 117.667 380.513C117.88 380.046 118.049 379.537 118.049 379.113C118.389 378.858 118.431 378.816 118.686 378.731L118.686 378.985ZM119.831 377.331L119.577 377.076C119.152 377.076 118.855 376.949 118.431 376.694C118.629 376.553 118.799 376.468 118.94 376.44C119.407 376.482 119.577 376.567 120.086 377.076L119.831 377.331ZM124.541 374.658C124.117 374.573 124.074 374.615 123.65 374.276L124.032 373.894C123.777 373.13 123.777 372.876 124.626 372.027C124.668 372.07 124.795 372.027 124.88 372.027C125.22 373.046 125.644 373.555 124.541 374.658ZM126.026 371.9L125.771 372.155L125.517 371.9L125.771 371.645L126.026 371.9ZM127.935 369.991C127.935 369.991 127.765 370.076 127.553 370.118L127.808 369.863L127.935 369.991ZM127.68 367.19C127.383 367.318 127.553 367.318 127.298 367.318L127.553 367.063L127.68 367.19ZM131.245 368.464L131.117 368.336C130.608 368.251 130.523 368.166 130.353 367.827L130.863 367.318C130.863 367.318 131.16 367.445 131.499 367.7C131.372 368.082 131.457 368.082 131.245 368.464ZM133.111 366.342L133.239 366.469C133.239 366.469 133.069 366.469 132.984 366.469C132.093 366.427 132.093 365.833 131.966 365.196C132.305 364.942 132.263 364.984 132.475 364.942C132.729 364.942 132.814 365.027 133.111 365.324C133.111 365.663 133.111 366.003 133.111 366.342ZM153.095 344.067C153.095 344.067 153.265 344.237 152.968 344.449L152.84 344.322C152.84 344.322 152.67 344.237 152.331 344.067C152.798 343.855 152.543 343.855 152.967 343.94L153.095 343.813C153.095 343.813 153.095 343.982 153.095 344.067ZM180.461 320.52L180.207 320.265C180.716 319.926 180.291 320.011 180.843 320.138L180.461 320.52ZM178.297 316.828L178.042 316.574C178.042 316.574 178.127 316.574 178.424 316.701L178.297 316.828ZM182.328 317.126C182.328 317.126 182.201 317.168 181.988 317.21C181.437 317.083 181.607 316.913 181.437 316.489C181.904 316.447 181.819 316.447 182.328 316.871L182.328 317.126ZM182.837 314.834L182.582 314.58C182.54 313.519 182.2 314.537 181.691 313.434L182.328 312.798C182.328 312.798 182.497 312.798 182.582 312.798C182.879 313.095 183.261 313.307 183.601 313.561C183.473 314.028 183.431 314.24 182.837 314.834ZM186.019 310.125C186.019 310.125 185.849 309.785 185.764 309.615L186.273 309.106C186.273 309.106 186.443 309.106 186.528 309.106C186.655 309.403 186.613 309.276 186.655 309.488C186.783 310.04 186.783 309.785 186.401 310.252L186.528 310.379L186.273 310.379C186.273 310.379 186.189 310.379 185.892 310.252L186.019 310.125ZM184.619 312.543L185.383 311.779L185.637 311.779L185.892 312.034L185.637 312.289C185.637 312.289 185.171 313.604 184.874 313.562C184.661 313.519 184.789 313.562 184.492 313.434C184.534 313.137 184.661 312.84 184.619 312.543ZM188.31 313.435C187.377 312.925 186.953 313.18 186.019 314.198C185.977 314.325 186.189 314.368 185.892 314.58L185.765 314.453C185.765 314.453 185.722 314.495 185.383 314.325C185.552 313.731 185.849 313.349 186.528 312.671C187.844 312.543 187.844 311.016 187.801 310.125L188.31 309.616C188.31 309.616 188.607 309.743 188.947 309.998C188.522 311.186 188.989 312.331 188.31 313.435ZM188.904 307.749C188.225 308.428 188.31 308.343 187.886 308.003L188.395 307.494L188.649 307.494L188.904 307.749ZM195.905 303.549L195.778 303.421C195.778 303.421 195.311 303.209 195.014 302.912C194.971 302.7 194.971 302.53 194.886 302.276L195.353 301.809C195.353 301.809 195.65 301.936 195.99 302.191C195.99 302.7 196.159 302.955 195.905 303.549ZM216.143 283.82L215.888 283.565C215.888 283.565 215.931 283.607 216.27 283.692L216.143 283.82ZM221.574 278.134C221.192 277.922 221.319 277.965 221.192 277.498C221.362 277.413 221.531 277.328 221.701 277.243C221.744 277.54 221.913 278.219 221.574 278.134ZM222.083 274.825C222.125 275.461 221.574 275.079 221.446 274.952C221.644 274.754 221.856 274.627 222.083 274.57L222.083 274.825ZM262.941 234.476C262.941 234.476 262.899 234.688 262.686 234.985C262.347 234.73 262.389 234.857 262.177 234.476C262.602 234.306 262.432 234.306 262.814 234.348L262.941 234.221L262.941 234.476ZM293.574 202.315C293.574 202.315 293.489 202.315 293.192 202.188C293.234 202.145 293.192 202.018 293.192 201.933C293.489 201.806 293.362 201.848 293.574 201.806C293.786 201.848 293.744 201.891 294.083 202.06C293.744 202.315 293.786 202.273 293.574 202.315ZM311.818 184.58C311.818 184.58 311.224 184.75 311.436 184.453C311.436 184.453 311.776 184.283 311.818 184.58ZM320.813 180.423C320.813 180.423 320.431 180.465 320.049 180.677C319.88 180.592 319.71 180.507 319.54 180.423C319.625 180.083 319.583 180.041 319.795 179.659C319.837 179.362 319.922 179.362 320.177 179.022C320.686 179.362 320.261 179.277 320.813 179.15C320.728 178.725 320.771 178.598 320.558 178.131C319.88 178.895 319.583 179.107 318.904 178.768L320.304 177.368C320.813 177.537 321.11 177.495 321.322 177.877C321.874 178.768 321.747 179.489 320.813 180.423ZM325.353 175.628L325.48 175.756C325.48 175.756 325.311 175.756 325.226 175.756C324.971 175.756 325.141 175.756 324.844 175.628C324.759 175.289 324.207 174.652 324.08 174.355C324.716 174.058 324.929 174.44 325.607 175.119C325.523 175.289 325.438 175.459 325.353 175.628ZM346.057 149.068C345.76 149.195 345.93 149.195 345.675 149.195L345.93 148.94L346.057 149.068Z" fill="#FF4713"/>
<path fill-rule="evenodd" clip-rule="evenodd" d="M249.997 123.88C249.997 123.88 250.125 123.922 250.167 123.965C249.955 124.007 249.912 124.049 249.828 124.049L232.008 141.869L240.071 149.932L246.265 143.737L278.474 175.946L288.954 165.467L256.745 133.258L262.939 127.063L254.877 119L249.997 123.88ZM260.184 156.977C260.184 156.977 260.014 156.977 259.929 156.977C259.547 156.85 259.802 156.85 259.547 156.596C259.929 156.553 259.76 156.553 260.184 156.723C260.226 156.765 260.184 156.893 260.184 156.977ZM261.287 150.019C261.287 150.019 261.456 150.358 261.541 150.528C261.456 150.528 261.371 150.528 261.287 150.528C261.117 150.443 261.032 150.273 260.65 149.891C260.82 149.807 260.99 149.722 261.159 149.637C261.329 149.891 261.287 149.764 261.287 150.019ZM280.637 168.097C280.637 168.097 280.467 168.096 280.383 168.096C280.086 167.969 280.255 168.054 280.043 167.757C280.425 167.715 280.255 167.63 280.637 167.842L280.637 168.097ZM246.222 133.172C246.222 133.172 246.943 132.96 246.731 133.427C246.646 133.766 246.264 133.384 246.222 133.172ZM273.211 157.87C273.211 157.87 273.041 157.955 272.829 157.997L273.083 157.742L273.211 157.87ZM262.814 147.218C262.771 147.6 262.517 147.94 262.177 148.364C262.05 148.322 261.923 148.279 261.796 148.237C262.008 147.855 262.093 147.6 262.05 147.218C262.474 147.049 262.305 147.049 262.687 147.091L262.814 146.964C262.814 146.964 262.814 147.134 262.814 147.218ZM258.273 142.678L258.019 142.678C258.019 142.678 257.806 142.635 257.509 142.423C257.679 142.338 257.849 142.253 258.019 142.169C258.103 142.338 258.188 142.508 258.273 142.678ZM265.105 148.746C265.105 148.746 264.936 148.746 264.851 148.746C264.511 148.576 264.723 148.704 264.469 148.364C264.851 148.322 264.681 148.322 265.105 148.492C265.105 148.576 265.105 148.661 265.105 148.746ZM259.546 141.405L259.291 141.405C258.867 141.32 258.825 141.108 258.655 140.768C259.122 140.726 259.037 140.726 259.546 141.15C259.546 141.235 259.546 141.32 259.546 141.405ZM247.028 129.396C246.433 128.971 246.646 128.759 246.518 128.123C246.815 127.91 246.773 127.868 247.027 127.868C247.367 127.868 247.494 127.91 247.919 128.25C247.749 128.589 247.452 128.971 247.028 129.396ZM250.422 127.189L250.167 126.935C250.167 126.935 250.252 126.935 250.549 127.062L250.422 127.189ZM255.853 126.596C255.853 126.596 255.301 126.299 254.962 125.959C255.089 125.577 255.132 125.45 255.089 125.068C254.325 125.492 254.198 125.874 253.307 125.068C254.283 124.092 255.513 123.626 256.489 124.432C256.32 124.941 256.193 126.596 255.853 126.596ZM255.895 120.528C255.895 120.528 255.725 120.613 255.513 120.655C255.046 120.528 255.046 120.358 254.877 120.019C255.386 119.764 255.301 119.764 255.895 120.273L255.895 120.528Z" fill="#FF4713"/>
<path fill-rule="evenodd" clip-rule="evenodd" d="M216.223 189.282C216.393 188.858 216.435 188.646 216.775 188.306C212.743 184.275 209.815 181.602 207.99 180.116C206.123 178.673 203.959 177.782 201.541 177.4C199.079 177.06 196.661 177.357 194.2 178.375C191.824 179.393 189.49 180.963 187.326 183.127C185.163 185.291 183.465 187.752 182.532 190.213C181.514 192.674 181.26 195.135 181.642 197.468C182.024 199.887 182.958 202.009 184.485 203.876C185.971 205.786 188.729 208.714 192.803 212.787L199.677 219.662C203.836 223.821 206.807 226.622 208.674 228.064C210.541 229.507 212.663 230.441 215.124 230.781C217.627 231.163 220.003 230.823 222.422 229.848C224.883 228.83 227.132 227.26 229.295 225.096C231.586 222.805 233.199 220.429 234.174 218.01C235.108 215.549 235.404 213.131 235.022 210.712C234.598 208.336 233.664 206.214 232.179 204.305C230.694 202.48 227.935 199.467 223.904 195.436L220.933 192.465L220.806 192.592L220.551 192.338C220.551 192.338 220.636 192.338 220.933 192.465L217.326 188.858C217.326 188.858 217.029 189.155 216.817 189.367C216.605 189.325 216.393 189.282 216.181 189.24L216.223 189.282ZM213.465 186.779C213.465 186.779 214.144 186.524 213.974 187.033C213.847 187.415 213.465 186.948 213.465 186.779ZM210.919 186.524C211.428 186.524 211.555 186.396 212.064 186.651C212.362 186.694 213.465 187.627 213.847 187.924C213.649 188.066 213.479 188.151 213.338 188.179C212.744 188.009 212.956 187.373 212.319 187.16C211.81 186.906 211.258 187.288 210.537 186.906L210.919 186.524ZM214.865 188.434L215.205 188.773L214.441 189.537C214.229 189.24 214.271 189.282 214.229 189.07C214.229 188.815 214.271 188.858 214.483 188.561C214.695 188.518 214.526 188.518 214.865 188.434ZM209.688 188.263C210.07 188.051 210.198 188.009 210.537 187.924L210.792 188.179C210.664 188.56 210.749 188.56 210.452 189.027C209.773 188.773 209.901 188.985 209.688 188.263ZM212.447 191.785L212.701 192.04C212.574 192.592 212.702 192.634 212.32 193.186C212.108 193.228 212.235 193.186 211.938 193.313C211.683 193.228 211.513 193.143 211.174 192.804C211.598 192.379 212.065 191.998 212.447 191.785ZM212.575 198.532L212.702 198.659C212.405 198.787 212.532 198.744 212.32 198.787L212.575 198.532ZM205.233 192.209L205.361 192.082L205.361 192.336L205.488 192.464C205.488 192.464 205.233 192.549 205.106 192.591C204.979 192.464 204.767 192.421 204.597 192.336C204.979 192.124 204.852 192.167 205.233 192.209ZM195.347 199.294L195.093 199.294C195.093 199.294 194.923 199.209 194.584 199.04C194.753 198.955 194.923 198.87 195.093 198.785C195.178 198.955 195.263 199.125 195.347 199.294ZM185.12 188.558L184.866 188.558C184.399 188.431 184.272 188.134 184.102 187.794C184.569 187.752 184.611 187.794 185.12 188.303C185.12 188.388 185.12 188.473 185.12 188.558ZM186.011 188.431C185.714 188.558 185.884 188.558 185.63 188.558L185.884 188.304L186.011 188.431ZM218.686 211.177C221.063 213.554 222.463 215.124 222.887 215.973C223.312 216.821 223.142 217.585 222.463 218.264C221.742 218.985 221.063 219.155 220.299 218.815C219.578 218.433 218.05 217.075 215.716 214.741L196.917 195.942C194.838 193.863 193.734 192.505 193.607 191.784C193.48 191.062 193.692 190.426 194.201 189.917C194.88 189.238 195.559 189.068 196.28 189.365C197.044 189.705 198.317 190.808 200.184 192.675L218.686 211.177ZM217.625 205.364L217.243 204.982C217.794 204.855 217.413 204.812 217.879 205.11L217.625 205.364ZM213.721 200.951C214.484 200.357 215.206 200.06 216.012 200.442C216.224 200.484 216.309 200.569 216.648 200.824C216.648 200.909 216.648 200.994 216.648 201.078L216.394 201.333C215.673 201.206 215.163 201.545 214.484 201.46C213.975 201.375 213.933 201.248 213.721 200.951ZM217.497 201.927L217.624 202.054C217.327 202.182 217.497 202.182 217.243 202.182L217.497 201.927ZM218.77 202.946C218.516 203.285 218.77 203.2 218.388 203.327C218.261 203.455 218.049 203.497 217.879 203.582L217.497 203.2C217.922 202.861 218.219 202.733 218.643 202.564C218.685 202.691 218.728 202.818 218.77 202.946ZM214.23 198.15C214.23 198.66 213.848 198.278 213.72 198.15C213.89 198.065 214.06 197.981 214.23 197.896C214.23 197.981 214.23 198.066 214.23 198.15ZM206.761 190.172C207.27 189.748 207.44 189.748 207.906 189.536L208.161 189.791L207.525 190.427C207.525 190.427 207.143 190.385 206.761 190.172ZM215.375 198.023L215.121 197.769C215.121 197.769 215.205 197.769 215.503 197.896L215.375 198.023ZM215.248 196.623C215.248 196.623 215.418 196.793 215.121 197.005L214.993 196.877C214.993 196.877 214.908 196.877 214.611 196.75C214.838 196.58 215.05 196.453 215.248 196.368C215.248 196.368 215.248 196.538 215.248 196.623ZM219.534 199.551C219.534 199.551 218.812 199.424 218.43 199.466L218.176 199.212C218.473 198.32 218.515 197.769 218.176 196.92L218.939 196.156C219.746 196.454 220.127 196.241 220.976 196.92C220.637 197.854 220.51 198.575 219.534 199.551ZM218.005 192.083C218.005 192.083 217.963 192.295 217.751 192.592C217.581 192.507 217.411 192.422 217.242 192.337C217.624 192.04 217.708 191.956 218.005 191.828C218.005 191.913 218.005 191.998 218.005 192.083ZM217.623 190.683C217.623 190.683 217.581 190.895 217.369 191.192C216.648 191.319 215.841 192.125 215.078 192.21C214.781 192.083 214.95 192.168 214.696 191.828C215.417 191.446 216.308 190.386 216.987 190.301L217.496 190.301C217.496 190.301 217.623 190.428 217.623 190.683ZM218.387 190.428C218.387 190.428 218.472 190.428 218.769 190.555L218.642 190.683L218.387 190.428Z" fill="#FF4713"/>
<path fill-rule="evenodd" clip-rule="evenodd" d="M190.126 217.073L186.307 213.253C182.572 209.519 179.517 207.058 177.098 205.912C174.68 204.766 171.879 204.596 168.697 205.402C165.514 206.208 162.332 208.117 159.235 211.214C156.986 213.463 155.374 215.924 154.398 218.427C153.423 220.93 153.126 223.349 153.423 225.683C153.805 228.017 154.612 230.011 155.885 231.624C157.115 233.278 159.195 235.612 162.08 238.498L164.542 240.959L164.542 240.79C164.542 240.79 164.754 240.832 164.923 240.832C164.881 240.959 164.881 241.044 164.881 241.214C164.881 241.214 164.839 241.172 164.796 241.214L173.835 250.253C177.782 254.199 181.092 256.83 183.68 258.146C186.311 259.419 189.196 259.674 192.251 258.826C195.349 257.935 198.446 255.941 201.501 252.886C204.556 249.831 206.295 246.819 207.016 243.467C207.695 240.157 207.482 237.314 206.336 234.98C205.191 232.646 202.475 229.421 198.316 225.263L196.746 223.692L194.964 225.474L195.091 225.602C194.582 226.281 194.709 226.323 194.37 226.068L186.309 234.13L191.358 239.18C193.565 241.386 194.838 242.914 195.178 243.763C195.56 244.569 195.348 245.375 194.541 246.181C193.735 246.987 192.929 247.199 192.08 246.86C191.274 246.478 189.874 245.332 187.922 243.38L176.676 232.135C176.379 232.432 176.337 232.559 176.167 232.644C175.658 232.474 175.913 231.965 175.785 231.498C175.828 231.456 175.87 231.413 175.912 231.371L173.876 229.334C173.876 229.334 173.579 229.716 173.451 229.928C173.918 230.055 174.088 230.055 174.597 230.564C174.512 231.074 174.64 231.286 174.385 231.795C173.918 231.837 173.536 232.219 173.112 232.304C172.857 232.304 173.027 232.304 172.73 232.177C172.815 231.922 172.857 231.88 173.112 231.54C173.324 231.498 173.409 231.413 173.748 231.158C172.985 230.479 172.221 229.8 171.457 229.121C171.712 228.952 172.263 228.485 172.687 228.146L169.165 224.623C167.128 222.587 165.94 221.144 165.558 220.338C165.176 219.446 165.431 218.598 166.279 217.749C167.043 216.986 167.807 216.731 168.528 217.028C169.249 217.325 170.65 218.471 172.687 220.508L179.646 227.467L190.083 217.03L190.126 217.073ZM170.182 205.954L170.436 205.699L170.946 206.208L170.946 206.463L170.691 206.463C170.691 206.463 170.606 206.548 170.309 206.335C170.267 206.123 170.352 206.293 170.182 205.954ZM161.019 233.449C160.637 233.067 160.764 233.024 160.892 232.557C161.316 232.812 161.019 232.43 161.231 232.897C161.358 233.109 161.316 233.067 161.359 233.449L161.189 233.618L161.019 233.449ZM166.111 238.032C166.111 238.032 165.602 237.692 165.984 237.65C166.069 237.735 166.323 237.82 166.111 238.032ZM156.648 231.539C156.945 231.836 156.818 231.708 156.988 232.133C156.436 231.836 156.606 232.09 156.648 231.539ZM159.364 234.255C159.364 234.255 159.195 234.17 158.982 234.042C158.728 233.533 159.194 233.236 159.067 232.769C159.025 232.472 158.685 232.472 158.6 231.878C158.897 231.921 159.194 232.048 159.491 232.091C159.661 232.43 159.916 232.77 160.17 233.024C159.873 233.406 159.619 233.83 159.364 234.255ZM162.802 236.758C162.802 236.758 163.396 237.098 162.929 237.31C162.589 237.48 162.674 236.886 162.802 236.758ZM172.095 245.628C171.798 245.755 171.925 245.712 171.713 245.755L171.968 245.5L172.095 245.628ZM168.063 239.22C168.063 239.22 167.894 239.559 167.809 239.729C167.342 239.856 167.427 239.941 166.918 240.026C166.706 239.899 166.493 239.856 166.027 239.814C165.899 239.517 165.814 239.517 165.73 239.092L165.899 238.923C166.408 238.923 166.663 238.838 166.96 238.626C167.172 238.668 167.342 238.668 167.512 238.668L168.063 239.22ZM162.759 234.085C162.759 234.085 162.632 233.958 162.589 233.915C162.419 233.746 162.462 233.788 162.419 233.406C162.589 233.491 162.801 233.534 162.929 233.576C162.886 233.788 162.801 233.958 162.716 234.128L162.759 234.085ZM166.875 233.704C166.875 233.704 166.875 233.873 166.875 233.958L166.62 233.958C166.62 233.958 166.535 233.958 166.238 233.831C166.238 233.576 166.238 233.746 166.111 233.449L166.365 233.194L166.875 233.704ZM169.76 235.826L169.506 235.571C169.506 235.571 169.548 235.613 169.888 235.698L169.76 235.826ZM193.564 228.148C193.903 227.893 193.988 227.893 194.2 227.766C194.2 227.851 194.2 227.935 194.2 228.02C194.158 228.232 194.2 228.19 193.946 228.529L193.564 228.148ZM194.455 229.039C194.455 229.039 194.582 228.996 194.837 229.166L194.71 229.293L194.455 229.039ZM196.535 233.07L196.407 233.197L196.28 233.07C196.28 233.07 196.238 233.027 195.898 232.943C196.365 232.815 195.983 232.773 196.535 233.07ZM194.965 239.392C195.474 239.392 195.517 239.435 195.984 239.901C195.941 239.944 195.984 240.071 195.984 240.156C195.899 240.156 195.814 240.156 195.729 240.156C195.305 240.071 195.177 239.774 194.965 239.392ZM157.623 220.04L157.369 219.785C157.369 219.785 157.454 219.785 157.751 219.912L157.623 220.04ZM174.088 232.686C174.258 233.025 174.215 232.813 174.215 233.068C174.215 233.407 174.173 233.45 173.961 233.832L173.579 233.45C173.579 233.45 173.579 233.365 173.452 233.068C173.791 232.813 173.876 232.813 174.088 232.686ZM169.25 227.679C168.02 227.466 167.171 228.145 165.941 227.424C166.917 226.787 168.486 226.66 169.505 227.424L169.25 227.679ZM172.093 227.806C171.711 228.188 171.796 228.103 171.372 228.018L171.839 227.552L172.093 227.806ZM177.015 224.242C177.524 223.903 177.142 223.945 177.652 224.115L177.27 224.497L177.015 224.242Z" fill="#FF4713"/>
<path fill-rule="evenodd" clip-rule="evenodd" d="M160.728 275.837L151.901 267.011L158.435 260.477L150.754 252.796L144.22 259.33L136.582 251.691L143.582 244.691L135.519 236.628L126.185 245.962C126.185 245.962 126.27 246.047 126.27 246.132C126.185 246.132 126.016 246.217 125.931 246.217L118.039 254.108L158.311 294.38L169.215 283.476C169.342 283.094 169.978 282.373 170.063 282.033L170.572 281.524C170.572 281.524 170.997 281.524 171.166 281.524L176.47 276.221L168.407 268.158L160.728 275.837ZM156.144 261.58C156.568 261.325 156.525 261.368 156.61 261.792C156.059 261.919 156.483 261.665 156.144 261.58ZM135.649 264.845C135.734 265.185 135.734 265.015 135.395 265.1L135.649 264.845ZM155.849 290.9L155.637 291.112L155.552 291.028C155.552 291.028 155.34 290.985 155.043 290.773C155.213 290.688 155.382 290.603 155.51 290.561L155.849 290.9ZM120.925 255.976L120.67 255.721C120.67 255.721 120.797 255.679 121.052 255.848L120.925 255.976ZM149.272 283.304L149.059 283.092C149.059 283.092 149.102 283.05 149.399 283.177L149.272 283.304ZM153.855 286.869L153.982 286.996C153.982 286.996 153.812 287.081 153.6 287.124C153.261 286.954 153.473 287.081 153.218 286.742C153.388 286.657 153.558 286.572 153.727 286.487C153.855 286.784 153.855 286.615 153.855 286.869ZM160.432 291.919L160.559 292.046C160.559 292.046 160.39 292.046 160.305 292.046C160.093 292.004 160.008 291.919 159.668 291.664L159.923 291.41C160.305 291.792 160.347 291.665 160.432 291.919ZM158.522 290.264C158.522 290.264 158.353 289.925 158.268 289.755C158.692 289.67 158.607 289.585 159.032 289.755L158.522 290.264ZM122.112 252.836C122.112 252.836 122.028 252.921 122.07 253.048C121.815 253.048 121.773 252.496 121.73 252.454C122.24 252.369 122.112 252.327 122.112 252.836ZM160.559 290.264L160.305 290.519C159.88 290.094 159.456 289.67 159.286 289.246C159.753 288.949 159.838 288.864 160.304 288.991C160.22 289.5 160.262 289.713 160.559 290.264ZM138.662 266.585C137.983 267.264 138.026 267.222 137.644 266.84L138.153 266.331C138.153 266.331 138.323 266.331 138.407 266.331L138.662 266.585ZM130.345 258.268C130.345 258.268 130.175 258.353 129.963 258.395L130.217 258.141L130.345 258.268ZM122.621 249.781C122.904 249.724 123.201 249.767 123.512 249.908L123.385 250.035L123.512 250.163C123.512 250.163 123.343 250.248 123.131 250.29C122.749 250.163 122.791 250.12 122.621 249.781ZM137.431 264.336C137.813 264.209 137.771 264.167 138.195 264.336C137.516 264.761 137.771 264.676 137.431 264.336ZM127.798 253.176L127.671 253.303L127.544 253.176C127.544 253.176 127.332 253.133 127.035 252.921L127.289 252.667L127.798 253.176ZM145.154 269.768C144.9 269.429 144.857 269.386 144.773 269.132C144.815 269.174 144.942 269.132 145.027 269.132C145.027 269.132 145.197 269.217 145.536 269.386L145.154 269.768ZM145.154 267.732L145.663 267.222L146.045 267.604C145.706 267.859 145.748 267.816 145.536 267.859C145.282 267.859 145.451 267.859 145.154 267.732ZM160.219 281.523C160.219 281.523 159.582 281.735 159.837 281.396C159.879 281.354 160.092 281.141 160.219 281.523ZM137.387 241.805C137.557 241.381 137.472 241.381 137.769 240.914C137.981 241.211 138.023 241.168 138.023 241.423C138.023 241.678 137.896 241.72 137.642 242.06L137.387 241.805ZM136.411 244.817L136.793 244.436C137.472 244.436 137.811 244.181 138.533 244.733L138.193 245.072C137.684 245.072 137.175 245.072 136.666 245.072L136.411 244.817ZM136.666 245.836L137.048 246.218L136.793 246.472L136.666 246.345C136.666 246.345 136.454 246.303 136.157 246.09C136.326 246.006 136.496 245.921 136.666 245.836ZM135.393 246.854C134.884 247.363 134.926 247.491 134.502 246.981C135.011 246.727 134.884 246.684 135.393 246.854ZM128.307 244.859L128.434 244.986C128.434 244.986 128.307 245.114 128.052 245.114L128.307 244.859ZM132.72 249.273C132.72 249.273 132.55 249.357 132.338 249.4L132.593 249.145L132.72 249.273ZM129.919 245.963C129.919 245.963 129.75 246.047 129.283 245.835L130.046 245.072L130.428 245.453C130.089 245.878 130.216 245.92 129.919 245.963ZM169.936 279.615C169.936 279.615 169.851 279.869 169.808 279.997L169.681 279.869C169.681 279.869 169.511 279.869 169.299 279.487C169.469 279.403 169.639 279.318 169.808 279.233C169.893 279.318 169.893 279.487 169.936 279.615ZM171.463 278.597C170.996 278.469 170.996 278.554 170.445 278.087C170.572 277.79 170.657 277.451 170.657 277.111C171.208 277.069 171.463 277.324 171.93 277.875C171.845 278.13 171.76 278.3 171.463 278.597Z" fill="#FF4713"/>
<path fill-rule="evenodd" clip-rule="evenodd" d="M131.829 275.368L128.01 271.549C124.275 267.815 121.178 265.396 118.801 264.208C116.383 263.062 113.582 262.892 110.357 263.74C107.175 264.546 103.993 266.455 100.938 269.51C98.6469 271.801 97.0771 274.22 96.059 276.765C95.0833 279.269 94.7865 281.687 95.1262 283.979C95.2536 284.87 95.4658 285.676 95.7629 286.482C96.1873 287.755 96.7815 288.943 97.5453 289.962C98.776 291.617 100.898 293.908 103.783 296.794L115.538 308.549C119.485 312.495 122.752 315.169 125.383 316.442C126.274 316.909 127.208 317.248 128.141 317.418L128.184 317.376C129.966 317.8 131.918 317.715 133.954 317.122C137.052 316.231 140.107 314.279 143.204 311.182C145.707 308.679 147.404 306.048 148.253 303.248L148.041 303.036L148.295 302.781L148.38 302.866C148.55 302.526 148.592 302.144 148.677 301.805C148.719 301.678 148.719 301.508 148.762 301.381C148.592 301.296 148.465 301.169 148.295 300.999C148.422 300.702 148.549 300.32 148.549 299.98L149.059 299.471C149.059 299.471 149.059 298.962 149.058 298.708C148.04 298.962 147.064 299.089 146.3 298.75C146.343 298.707 146.3 298.58 146.3 298.495C147.022 297.604 147.106 297.01 147.913 296.119C148.21 296.162 148.549 296.162 148.846 296.119C148.804 295.737 148.761 295.44 148.634 295.143C148.21 295.313 147.743 295.355 147.276 295.483L147.021 295.228L147.531 294.719C147.531 294.719 148.125 294.549 148.337 294.252C148.252 293.913 148.125 293.616 147.997 293.319C146.851 290.985 144.178 287.717 140.019 283.559L138.449 281.988L127.969 292.468L133.019 297.518C135.226 299.725 136.499 301.252 136.881 302.059C137.22 302.907 137.008 303.713 136.245 304.477C135.438 305.283 134.59 305.538 133.784 305.156C132.935 304.816 131.577 303.628 129.625 301.676L110.911 282.962C108.874 280.925 107.643 279.525 107.304 278.676C106.879 277.827 107.134 276.979 107.982 276.13C108.746 275.366 109.51 275.112 110.231 275.409C110.613 275.536 111.165 275.918 111.886 276.555C112.013 276.427 112.098 276.427 112.268 276.343C112.523 276.597 112.65 276.894 112.862 277.191L112.735 277.319C113.244 277.743 113.796 278.295 114.39 278.889L121.349 285.848L131.829 275.368ZM96.6533 279.736L96.7806 279.863C96.7806 279.863 96.6534 279.99 96.3988 279.99L96.6533 279.736ZM102 287.119L101.746 287.374C101.109 287.247 101.067 287.374 100.727 286.865C101.321 286.525 101.364 286.568 102 287.119ZM98.4359 283.809L98.3086 283.937C98.3086 283.937 98.2662 284.149 98.054 284.446C97.8418 284.064 97.8843 284.021 97.7994 283.682C98.1812 283.64 98.0115 283.64 98.4359 283.809ZM96.0171 282.154C96.4838 282.027 96.1019 282.069 96.5263 282.154L96.399 282.282C96.399 282.282 96.4414 282.579 96.1444 282.791C96.102 282.579 96.0595 282.366 96.0171 282.154ZM97.4175 283.555C97.0356 283.767 97.1629 283.724 96.781 283.682C97.3326 283.385 96.9507 283.427 97.4175 283.555ZM97.7995 285.719C98.1814 285.761 98.139 285.634 98.0542 285.973L97.7995 285.719ZM98.9455 288.647C98.9455 288.647 98.9879 288.604 99.3274 288.774L99.2001 288.901L98.9455 288.647ZM101.492 293.908L101.237 293.654C101.237 293.654 101.577 293.569 101.492 293.908ZM100.94 292.423C100.94 292.423 100.643 293.145 100.473 293.145C100.049 292.975 100.261 293.017 100.091 292.508C100.473 292.296 100.643 292.296 100.94 292.169L100.94 292.423ZM100.431 291.15C100.431 291.15 100.261 291.15 100.176 291.15C99.9641 291.108 99.8792 291.023 99.5397 290.768C99.4973 290.386 99.3699 290.174 99.0729 289.792C99.6245 289.495 99.4123 289.538 99.9215 289.877C100.049 290.259 100.346 290.811 100.431 291.15ZM125.892 315.339C125.341 315.127 125.425 315.296 125.128 314.829C125.595 314.787 125.51 314.787 126.019 315.211L125.892 315.339ZM100.558 289.495L100.303 289.241C100.303 289.241 100.388 289.241 100.685 289.368L100.558 289.495ZM96.7812 285.464L96.5266 285.719L96.272 285.464L96.5265 285.209L96.7812 285.464ZM127.165 314.83C127.165 314.83 126.995 314.915 126.783 314.957C126.529 314.872 126.486 314.83 126.147 314.575C126.316 314.405 126.486 314.32 126.656 314.32C126.656 314.32 126.868 314.363 127.165 314.575L127.165 314.83ZM104.759 292.169L104.504 291.914C104.504 291.914 104.589 291.914 104.886 292.042L104.759 292.169ZM99.3272 286.992C98.7331 286.822 98.6059 286.864 98.3088 286.483C98.7755 286.186 99.2422 285.889 99.709 285.592C99.8363 285.889 99.7939 285.761 99.8363 285.973C99.7939 286.355 99.6666 286.567 99.3272 286.992ZM128.438 314.575C128.438 314.575 127.886 314.278 127.547 313.939L128.056 313.429C128.056 313.429 128.438 313.642 128.82 313.939C128.65 314.193 128.693 314.236 128.438 314.575ZM104.886 290.26L104.759 290.132C104.377 290.005 104.462 290.005 104.25 289.623C104.716 289.581 104.631 289.581 105.141 290.005L104.886 290.26ZM102.382 285.719L102.637 285.974C102.128 286.398 102.17 286.356 101.746 286.356L102.382 285.719ZM99.1996 283.3L99.4541 283.046L99.5815 283.173C99.5815 283.173 99.4117 283.258 99.1996 283.3ZM103.613 286.441L103.613 286.695C103.698 287.374 103.104 286.95 102.976 286.822C103.273 286.525 103.358 286.61 103.613 286.441ZM123.77 306.852C123.812 307.489 123.261 307.107 123.133 306.979C123.331 306.781 123.543 306.654 123.77 306.598L123.77 306.852ZM105.14 287.714L104.886 287.968C104.886 287.968 104.504 287.926 104.122 287.714L104.249 287.586C104.249 287.586 104.08 287.247 103.995 287.077C104.589 286.823 104.546 286.95 105.14 287.459L105.14 287.714ZM98.5629 280.882C98.5629 280.882 98.4356 281.179 98.181 281.518C97.6719 281.348 97.7567 281.518 97.4172 281.009C97.7991 280.881 98.181 280.754 98.5629 280.627C98.5204 280.669 98.5629 280.797 98.5629 280.882ZM106.668 287.714C106.329 287.883 106.541 287.841 106.286 287.841L106.541 287.586L106.668 287.714ZM147.785 293.446L148.04 293.7C147.361 294.379 147.446 294.294 147.021 293.955C147.276 293.785 147.53 293.616 147.785 293.446ZM145.113 307.236C145.113 307.236 144.986 307.363 144.731 307.363C144.349 307.321 144.18 307.151 143.713 306.854L144.095 306.472C144.561 306.599 144.604 306.557 145.113 306.981C145.113 307.066 145.113 307.151 145.113 307.236ZM141.336 296.84C141.802 296.713 141.378 296.713 141.845 296.84C141.845 296.84 142.015 296.925 142.354 297.095C142.354 297.095 142.439 297.689 142.1 297.604C141.675 297.519 141.548 297.222 141.336 296.84ZM142.863 298.622C143.09 298.452 143.302 298.325 143.5 298.24C143.5 298.24 143.5 298.41 143.5 298.495C143.5 298.495 143.415 298.665 143.245 299.004L142.863 298.622ZM147.149 302.908C147.149 302.908 147.489 302.738 147.659 302.654C147.659 302.738 147.659 302.823 147.659 302.908C147.659 302.908 147.574 303.078 147.404 303.417C147.404 303.417 147.234 303.078 147.149 302.908ZM140.827 299.131L141.336 298.622L141.59 298.877L141.463 299.004C141.52 299.287 141.477 299.584 141.336 299.895L141.209 299.768C141.209 299.768 140.997 299.725 140.699 299.513C140.827 299.216 140.827 299.386 140.827 299.131ZM141.846 305.92C142.779 305.411 143.798 305.242 144.604 304.69L145.24 305.327C145.24 305.327 145.071 305.666 144.986 305.836L145.113 305.963C145.113 305.963 144.943 305.963 144.858 305.963C144.519 305.878 144.307 305.496 144.095 305.454C143.034 305.751 142.991 306.981 141.846 306.175C141.846 306.09 141.846 306.005 141.846 305.92ZM134.76 313.77C134.633 314.151 134.718 314.151 134.506 314.533L134.378 314.406C133.954 314.321 134.081 314.279 133.869 313.897C134.209 313.642 134.251 313.685 134.506 313.515L134.76 313.77ZM131.747 310.757C131.747 310.757 131.96 310.714 132.384 310.884C131.747 311.096 132.087 311.096 131.747 310.757ZM99.1991 277.699L98.9445 277.954L98.6899 277.699L98.9445 277.445L99.1991 277.699ZM136.245 310.502L136.372 310.63C136.118 310.799 136.245 310.757 135.991 310.757C135.694 310.63 135.863 310.715 135.651 310.418C135.821 310.333 135.991 310.248 136.16 310.163C136.288 310.46 136.245 310.248 136.245 310.502ZM134.123 306.089C134.123 306.089 134.76 305.877 134.632 306.344C134.505 306.726 134.123 306.259 134.123 306.089ZM100.471 271.419L100.599 271.547C100.599 271.547 100.429 271.632 100.217 271.674C99.835 271.547 100.09 271.631 99.835 271.292C100.005 271.207 100.174 271.122 100.344 271.037C100.471 271.335 100.429 271.207 100.471 271.419ZM105.012 272.141C105.012 272.141 105.012 272.311 105.012 272.396C104.715 272.523 104.884 272.523 104.63 272.523C104.29 272.353 104.418 272.396 104.248 271.886L104.502 271.632L105.012 272.141ZM115.28 268.493L115.025 268.747L115.153 268.875C115.153 268.875 114.983 268.875 114.898 268.875C114.601 268.832 114.474 268.705 114.134 268.366C114.502 268.168 114.884 268.21 115.28 268.493ZM113.498 269.002C113.498 269.002 113.583 269.002 113.88 269.129L113.752 269.257L113.498 269.002ZM112.861 270.657C113.201 270.317 113.328 270.275 113.625 270.148L113.625 270.402C113.54 270.996 113.116 271.59 112.607 272.184C112.48 272.142 112.352 272.099 112.225 272.057C112.437 271.59 112.904 271.123 112.861 270.657ZM116.257 278.634C116.257 278.634 116.257 278.804 116.257 278.889C116.257 279.398 115.917 278.974 115.748 278.889C115.917 278.804 116.087 278.719 116.257 278.634ZM109.976 274.051C109.976 274.051 110.061 274.051 110.316 274.221L110.231 274.306L109.976 274.051Z" fill="#FF4713"/>
<path fill-rule="evenodd" clip-rule="evenodd" d="M128.362 324.335L112.067 312.283C111.77 312.41 111.642 312.452 111.218 312.792C111.048 312.566 110.921 312.353 110.836 312.155C111.176 311.986 111.345 311.986 111.6 311.901L104.641 306.723C104.641 306.723 104.471 307.148 104.131 307.487C103.919 307.53 104.131 307.487 103.75 307.614C103.665 307.53 103.495 307.53 103.368 307.487C103.368 307.402 103.368 307.317 103.368 307.233C103.792 306.723 103.834 306.681 104.174 306.426L82.1076 290.046L69.5914 302.562L69.7187 302.689C69.7187 302.689 69.549 303.029 69.4641 303.198C69.4217 303.58 69.252 303.835 68.955 303.962C68.7429 303.92 68.9126 304.005 68.5731 303.835C68.5307 303.792 68.5731 303.665 68.5731 303.58L67.7245 304.429C67.5973 304.811 67.6397 304.768 67.47 305.193C67.3851 305.108 67.3003 305.023 67.173 304.98L66.9608 305.192L67.555 305.956C67.555 305.956 67.852 305.914 68.2339 305.956C68.3611 305.574 68.2762 305.405 68.6157 305.32C68.8279 305.362 68.9127 305.447 69.2522 305.702C69.2098 306.084 69.2523 306.466 69.3372 306.805C68.9553 306.932 68.9129 306.805 68.4461 306.932L68.5734 307.06C68.5734 307.06 68.7007 307.357 68.7432 307.484L101.335 350.004C101.335 350.004 101.802 350.216 102.141 350.555L111.815 340.882C111.815 340.882 111.687 340.839 111.602 340.755C111.73 340.627 111.942 340.585 112.112 340.5L112.748 339.948L106.128 332.14L109.904 328.364L117.67 335.027L126.198 326.499C126.198 326.499 125.986 326.202 125.901 325.947L126.155 325.693L126.58 326.117L128.362 324.335ZM72.0105 308.206L72.1378 308.333C71.7984 308.503 72.0105 308.46 71.7559 308.46L72.0105 308.206ZM74.5567 311.77L75.5752 312.789C75.5752 312.789 75.4479 313.086 75.1934 313.425C75.1934 313.425 74.9812 313.298 74.5569 313.043C74.5993 312.576 74.5144 312.491 74.3022 312.025L74.5567 311.77ZM72.138 310.879C72.138 310.879 72.4775 310.709 72.6472 310.624C72.7745 310.921 72.7321 310.794 72.7745 311.006C72.9443 311.346 72.9443 311.685 72.7746 312.025C72.223 311.473 72.2654 311.346 72.138 310.879ZM102.989 345.549L102.735 345.803C102.48 345.464 102.353 345.336 102.225 345.039C102.65 345.039 102.522 344.997 102.989 345.294L102.989 345.549ZM76.2969 316.565C76.7636 316.098 76.8485 316.014 76.806 315.547C77.3576 314.995 77.6546 314.783 78.2062 314.91C78.0365 315.759 78.1638 315.971 77.3153 316.82C76.891 316.735 76.7637 316.777 76.2969 316.565ZM106.426 344.149C106.426 344.149 106.087 344.064 105.79 343.767C106.341 343.639 107.147 344.106 106.426 344.149ZM101.376 337.826L101.122 338.08L100.23 337.189C100.23 337.189 100.188 336.638 100.103 336.298L100.358 336.044C101.079 336.765 100.952 337.147 101.376 337.826ZM70.9495 305.702C70.9495 305.702 70.7798 305.702 70.6949 305.702C70.3979 305.575 70.5676 305.66 70.313 305.32C70.6949 305.278 70.5676 305.235 70.9495 305.447L70.9495 305.702ZM75.5322 306.466C75.5322 306.466 75.2352 306.339 74.8957 306.084C74.8957 305.83 74.8957 305.999 74.7684 305.702L75.1502 305.321L75.4048 305.575C75.4048 305.575 75.617 305.618 75.914 305.83C75.8292 306.084 75.7868 306.127 75.5322 306.466ZM71.713 303.411C71.713 303.411 71.5858 303.453 71.5009 303.199C71.2038 302.647 71.2462 302.265 71.1189 301.798C71.4159 301.586 71.3734 301.544 71.628 301.544C71.8826 301.544 71.925 301.671 72.2645 301.926C72.1373 302.392 72.1374 303.326 71.713 303.411ZM76.4231 305.066C76.4231 305.066 76.2534 305.066 76.1686 305.066C75.6594 304.981 75.6169 304.854 75.4047 304.557C75.7442 304.5 76.0836 304.585 76.4231 304.811C76.4231 304.811 76.4231 304.981 76.4231 305.066ZM101.757 327.345C101.757 327.854 101.375 327.472 101.248 327.345C101.418 327.26 101.587 327.175 101.757 327.091C101.757 327.175 101.757 327.26 101.757 327.345ZM98.829 325.096C95.5614 321.234 90.5963 314.996 83.9761 306.17C91.1901 312.366 97.3856 317.458 102.435 321.49L98.829 325.096ZM111.729 329.255L111.474 329.001C111.474 329.001 111.559 329.001 111.856 329.128L111.729 329.255ZM119.833 330.996L119.961 331.123C119.961 331.123 119.833 331.251 119.579 331.251C119.112 331.208 118.857 330.784 118.688 330.359C119.154 330.317 119.112 330.359 119.579 330.741C119.961 330.784 119.748 330.741 119.833 330.996ZM104.174 313.81L103.92 313.555C103.92 313.555 103.962 313.513 104.302 313.682L104.174 313.81ZM96.4082 301.291L96.1537 301.546C96.1537 301.546 95.5596 301.376 95.2626 301.419C95.1353 301.122 95.1777 301.249 95.1352 301.037C95.0504 300.867 94.9655 300.697 94.8806 300.528C95.6019 300.315 95.6868 300.315 96.4082 301.037L96.4082 301.291ZM109.054 311.901C109.054 311.901 109.308 311.816 109.69 312.028C109.096 312.282 109.436 312.283 109.054 311.901ZM124.373 322.383L124.755 322.001L125.264 322.51C124.967 322.722 125.009 322.765 124.755 322.765C124.5 322.765 124.755 322.765 124.373 322.637C124.373 322.552 124.373 322.468 124.373 322.383Z" fill="#FF4713"/>
<path fill-rule="evenodd" clip-rule="evenodd" d="M68.5264 315.674L62.5005 309.648L44.7656 327.383L65.2197 347.837C65.2197 347.837 65.2197 347.582 65.1772 347.455C65.5591 347.413 65.3894 347.413 65.8137 347.582L65.6864 347.71C65.6864 347.71 65.6016 347.964 65.5592 348.176L67.8931 350.51L68.3174 350.086L68.572 350.341C68.572 350.341 68.4872 350.595 68.4448 350.723L68.5721 350.85C68.5721 350.85 68.4023 350.85 68.3175 350.85C68.3175 350.85 68.2751 350.807 68.2326 350.85L85.0372 367.654L95.5169 357.175L78.6275 340.285L85.0765 333.836L77.3957 326.155L70.9466 332.604L63.3081 324.966L70.5633 317.711L68.7386 315.886C68.7386 315.886 68.6962 315.928 68.6113 315.928C68.5265 316.013 68.6113 315.928 68.3567 315.674C68.3991 315.716 68.5264 315.674 68.5689 315.631L68.5264 315.674ZM56.307 326.705C56.307 326.705 56.6465 326.535 56.6889 326.832C56.4768 326.875 56.0949 327.002 56.307 326.705ZM83.382 364.132L83.5093 364.26C83.2123 364.472 83.3821 364.387 83.1275 364.387C82.788 364.302 82.9577 364.387 82.7455 364.005C82.9153 363.92 83.085 363.835 83.2547 363.75C83.4245 364.09 83.3396 363.92 83.382 364.132ZM70.8634 351.359L70.6088 351.105C70.6088 351.105 70.6937 351.105 70.9907 351.232L70.8634 351.359ZM82.3628 355.052C82.3628 355.052 82.278 355.646 82.2356 355.943C81.9386 356.07 82.1083 356.07 81.8537 356.07C81.3021 355.943 81.3445 355.646 81.2172 355.179C81.5991 354.967 81.8112 354.925 82.1082 354.797L82.3628 355.052ZM59.2351 329.124L59.1078 329.251C59.1078 329.251 58.9805 329.548 58.726 329.888C58.6411 329.718 58.5562 329.548 58.4713 329.378L58.9805 328.869L59.2351 329.124ZM85.0359 353.397L84.7813 353.143C84.7813 353.143 84.8661 353.143 85.1632 353.27L85.0359 353.397ZM55.2881 320.085L55.5426 319.831C55.967 320.255 56.0943 320.298 56.1792 320.467C56.1368 320.68 56.3914 320.68 56.0519 320.849L55.9246 320.722C55.5003 320.637 55.5003 320.467 55.2881 320.085ZM58.8526 323.141C58.8526 323.141 58.6829 323.141 58.598 323.141C58.1313 323.098 58.004 322.801 57.8342 322.377C58.3009 322.335 58.3434 322.462 58.8526 322.886C58.8526 322.971 58.8526 323.056 58.8526 323.141ZM55.6699 319.279L55.9245 319.025C55.9245 319.025 55.8396 319.11 55.882 319.237C55.8396 319.364 55.7123 319.491 55.6699 319.279ZM61.2289 324.075L60.9743 324.075C60.9743 324.075 60.7197 323.396 60.5923 323.184C61.0591 323.141 60.9742 323.141 61.4835 323.565C61.3562 323.862 61.6108 324.117 61.2289 324.075ZM58.3008 320.892L58.1735 320.765C57.7916 320.637 57.7492 320.51 57.537 320.128C58.0037 320.086 58.0886 320.171 58.5554 320.637L58.3008 320.892ZM74.7653 331.247L74.6381 331.374C74.6381 331.374 74.4683 331.374 74.3835 331.374C74.2137 331.289 74.044 331.204 73.8743 331.119C74.3834 330.95 74.2986 331.035 74.7653 331.247ZM61.7795 313.17C62.2038 313 61.7795 313 62.2463 313.127L62.119 313.255C62.119 313.255 62.1614 313.382 61.9917 313.636C61.8644 313.509 61.822 313.297 61.7795 313.17ZM60.8468 321.401C60.8468 321.401 60.6771 321.486 60.4649 321.529L60.7195 321.274L60.8468 321.401ZM57.7914 318.855C57.5368 318.487 57.4943 318.106 57.664 317.71L57.7913 317.837C57.7913 317.837 58.0035 317.879 58.3006 318.091C58.1733 318.388 58.1309 318.516 57.7914 318.855ZM60.7192 317.964C60.1676 318.092 60.5494 317.88 60.21 317.71C60.6767 317.498 60.6343 317.54 60.7192 317.964ZM62.5012 316.437C62.5012 316.437 62.3739 316.564 62.1193 316.564L62.3739 316.31L62.5012 316.437ZM63.5194 315.419C63.5194 315.419 62.9253 314.825 62.7556 314.4C62.9253 314.315 63.095 314.231 63.2647 314.146C63.4345 314.57 63.6043 314.994 63.774 315.419L63.5194 315.419ZM66.5748 317.965C66.0231 317.498 65.5139 316.904 65.3017 316.437C65.8108 316.437 66.023 316.649 66.5747 317.201C66.5747 317.625 66.6596 317.541 66.5748 317.965ZM65.047 315.164L64.7924 315.419L64.6651 315.292C64.6651 315.292 64.5378 315.164 64.4104 314.782C64.9196 314.698 64.5377 314.655 65.0469 314.91C65.0469 314.995 65.047 315.079 65.047 315.164ZM66.914 315.08C66.914 315.08 66.914 315.249 66.6594 315.589C66.1502 315.249 66.2775 315.207 66.0228 314.698C66.4896 314.655 66.8715 314.783 66.914 315.08ZM66.0228 313.934L65.7682 314.188L65.8955 314.316C65.8955 314.316 65.7258 314.316 65.6409 314.316C65.4288 314.273 65.3439 314.188 65.0044 313.934C65.3863 313.637 65.556 313.552 65.7681 313.425C65.853 313.594 65.9379 313.764 66.0228 313.934Z" fill="#FF4713"/>
<path fill-rule="evenodd" clip-rule="evenodd" d="M41.1538 286.181C37.5474 288.939 32.8802 292.927 28.2555 296.873C28.2131 297 28.1282 297.085 28.0858 297.212C28.001 297.467 27.9586 297.509 27.704 297.849C27.6191 297.764 27.5767 297.637 27.5342 297.509C23.546 300.988 19.6425 304.298 16.5452 306.801C10.0537 312.444 6.44735 316.899 0.167976 322.924L10.0555 332.811C16.5057 339.092 33.0132 355.26 48.3749 369.518C48.4173 369.391 48.4173 369.221 48.4597 369.009C48.6294 368.924 48.7992 368.839 48.9689 368.755C49.5205 368.967 50.0297 369.137 50.5814 369.603C50.3268 370.112 50.1571 370.537 50.0723 371.046C56.3103 376.86 62.2937 382.249 67.2162 386.408L67.6829 385.941L67.9375 386.196L67.8103 386.323C67.8103 386.323 67.7679 386.705 67.7254 386.832C68.8288 387.766 69.9321 388.615 70.9081 389.421C69.2106 387.299 67.1737 384.923 64.8821 382.377L64.7548 382.249C64.7548 382.249 64.4578 382.122 64.1607 381.91C64.2456 381.825 64.3304 381.825 64.4153 381.825C62.7603 379.915 60.978 377.878 59.0683 375.799C58.3895 376.393 58.6016 376.266 58.1773 375.926C58.6016 375.757 58.6864 375.672 59.0683 375.799C57.0314 373.508 54.8671 371.174 52.6605 368.797C52.6605 368.882 52.6605 368.967 52.6181 369.094C52.321 369.222 52.4908 369.222 52.2362 369.222C52.2362 369.222 52.0664 369.137 51.727 368.967C51.727 368.967 51.7269 368.458 51.5996 368.076L51.8117 367.864C51.8117 367.864 51.3874 367.355 51.1328 367.185C51.1328 367.27 51.0479 367.354 50.9631 367.439C50.7933 367.354 50.666 367.312 50.4963 367.227C50.5387 367.015 50.5387 366.76 50.5811 366.548C50.1143 365.997 49.6051 365.487 49.0958 364.978C48.7988 365.105 48.9261 365.063 48.5867 365.063C49.011 364.808 48.7988 364.766 49.0534 364.851C42.7304 358.104 36.1528 351.187 30.3391 345.118C30.2542 345.203 30.1694 345.288 30.0846 345.543C29.9997 345.543 29.9148 345.543 29.83 345.543C29.5754 345.373 29.2783 345.161 28.9813 344.948C29.2358 344.439 29.2782 344.312 29.2358 343.93C26.1379 340.747 23.3372 337.862 20.8759 335.316C20.6637 335.273 20.791 335.316 20.494 335.188C20.5364 335.146 20.6213 335.146 20.6637 335.103C18.0751 332.43 15.8684 330.138 14.2983 328.568L8.65436 322.924L11.497 320.082C14.8064 316.942 18.4552 313.039 22.1889 308.881C22.1888 308.626 22.1888 308.287 22.1463 307.99C22.3584 306.674 23.2493 305.359 23.2916 304.044C23.716 304.044 23.5887 303.916 23.8008 304.298C23.9707 305.147 23.8435 306.208 23.589 307.226C24.0557 306.759 24.5224 306.208 24.9466 305.699C24.8617 304.85 24.9465 304.001 25.2859 303.322L25.4132 303.45C25.4132 303.45 25.9224 303.704 26.3043 304.086C27.7893 302.432 29.2742 300.692 30.6743 298.952C30.7592 298.528 30.8864 298.146 31.141 297.722C31.2258 297.807 31.3107 297.976 31.3956 298.061C34.9171 293.861 38.2688 289.745 41.1538 286.181ZM56.4375 375.714C56.4375 375.714 56.2678 375.799 56.0557 375.841L56.3102 375.587L56.4375 375.714ZM19.8577 337.607C19.8577 337.607 19.688 337.267 19.6031 337.098C19.9425 336.843 19.985 336.801 20.2395 336.716C20.3669 337.013 20.3668 336.843 20.3669 337.098C20.6215 337.607 20.5791 337.395 20.2397 337.989C20.0699 337.904 19.9002 337.819 19.7304 337.734L19.8577 337.607ZM21.1308 338.625L21.0035 338.753L20.7489 338.498C20.7489 338.498 20.7913 338.456 21.1308 338.625ZM25.2896 343.802L25.926 343.166C25.926 343.166 26.0957 343.166 26.1806 343.166L26.4352 343.421C26.4352 343.421 26.4353 344.1 26.4353 344.439L26.1807 344.694C25.5018 344.439 25.5442 344.481 25.2896 343.802ZM30.0847 347.07L29.9574 347.197C29.9574 347.197 29.9574 347.282 29.8301 347.579C29.7453 347.41 29.6604 347.24 29.5755 347.07C30.0847 346.9 29.6179 346.943 30.0847 347.07ZM28.1753 347.452C28.1753 347.452 28.048 347.409 27.8358 347.112C28.2177 347.07 28.0055 346.943 28.4299 347.197C28.4299 347.282 28.4299 347.367 28.4299 347.452L28.1753 347.452ZM48.7142 367.482C48.7142 367.482 48.8414 367.185 49.096 366.845L49.3506 366.845L49.7325 367.227L49.3507 367.609C49.3507 367.609 48.9263 367.524 48.7142 367.482ZM57.0739 374.059C57.0739 374.059 57.1588 374.314 57.2012 374.441C57.1163 374.526 57.1164 374.696 57.0739 374.823L56.9466 374.696C56.6072 374.526 56.7769 374.611 56.5647 374.314C56.7344 374.229 56.9041 374.144 57.0739 374.059ZM42.1365 359.376C41.5424 359.207 41.3727 359.376 40.7362 358.994C40.821 358.74 40.8635 358.613 40.8634 358.358L41.4999 357.722C41.4999 357.722 42.0939 358.061 42.5183 358.485C42.391 358.867 42.4759 358.867 42.1365 359.376ZM30.9758 347.707C31.5274 347.41 31.188 347.495 31.6123 347.579C31.2304 347.792 31.3577 347.749 30.9758 347.707ZM15.9515 310.62L15.6969 310.365C15.6969 310.365 15.7393 310.408 16.0788 310.492L15.9515 310.62ZM24.4372 302.898C24.0978 303.068 24.2675 302.983 24.0553 303.025C23.631 302.94 23.7159 302.855 23.5461 302.516C24.0128 302.389 23.8855 302.346 24.3947 302.686C24.4372 302.728 24.4372 302.813 24.4372 302.898ZM25.9222 301.668C25.9222 301.668 25.413 301.583 25.413 301.413C25.5827 301.413 26.0919 301.158 25.9222 301.668Z" fill="#FF4713"/>
<path d="M290.886 39.7567L290.801 39.8415L290.547 39.5869C290.547 39.5869 290.589 39.5445 290.886 39.7567Z" fill="#FF4713"/>
</g>
<defs>
<clipPath id="clip0_30_7718">
<rect width="456.437" height="127.828" fill="white" transform="translate(0 322.75) rotate(-45)"/>
</clipPath>
</defs>
</svg>
