<svg width="323" height="48" viewBox="0 0 323 48" fill="none" xmlns="http://www.w3.org/2000/svg">
<path d="M122.012 0.230469H116.193L109.314 9.67122H102.351V0.230469H97.668V23.3679H102.351V13.8911H109.286L116.193 23.3679H122.012L113.415 11.7812L122.012 0.230469Z" fill="white"/>
<path d="M177.137 12.4291C178.017 11.2409 178.453 9.59188 178.453 7.49633C178.453 5.03353 177.85 3.19002 176.652 1.98023C175.453 0.770427 173.77 0.165527 171.601 0.165527H154.074V23.3677H158.757V14.8343H168.415L172.89 23.3677H178.217L173.389 14.6687C175.01 14.3663 176.257 13.6173 177.137 12.4291ZM173.029 9.89433C172.571 10.3696 171.913 10.6072 171.054 10.6072L158.764 10.5712V4.38542H171.054C171.913 4.38542 172.571 4.61586 173.029 5.08394C173.486 5.55201 173.714 6.35855 173.714 7.50353C173.714 8.64852 173.486 9.42625 173.029 9.90153V9.89433Z" fill="white"/>
<path d="M201.279 14.6687C202.901 14.3663 204.148 13.6173 205.027 12.4291C205.907 11.2409 206.344 9.59188 206.344 7.49633C206.344 5.03353 205.741 3.19002 204.542 1.98023C203.344 0.770427 201.66 0.165527 199.492 0.165527H181.965V23.3677H186.648V14.8343H196.305L200.781 23.3677H206.108L201.279 14.6687ZM198.938 10.6144L186.648 10.5784V4.38542H198.938C199.797 4.38542 200.455 4.61586 200.912 5.08394C201.37 5.55201 201.598 6.35855 201.598 7.50353C201.598 8.64852 201.37 9.42625 200.912 9.90153C200.455 10.3768 199.797 10.6144 198.938 10.6144Z" fill="white"/>
<path d="M229.31 15.0576C229.31 16.6994 228.963 17.8228 228.271 18.4133C227.578 19.011 226.4 19.3063 224.744 19.3063H219.098C217.442 19.3063 216.265 19.011 215.572 18.4133C214.879 17.8156 214.533 16.6994 214.533 15.0576V0.165527H209.85V15.0576C209.85 16.9587 210.113 18.543 210.639 19.796C211.166 21.049 212.046 21.9851 213.272 22.6044C214.498 23.2237 216.182 23.5262 218.301 23.5262H225.527C227.654 23.5262 229.33 23.2165 230.564 22.6044C231.79 21.9851 232.67 21.049 233.196 19.796C233.723 18.543 233.986 16.9587 233.986 15.0576V0.165527H229.303V15.0576H229.31Z" fill="white"/>
<path d="M255.613 0.165527H238.086V23.3677H242.769V14.8343H255.613C257.782 14.8343 259.458 14.2294 260.664 13.0196C261.862 11.8098 262.465 9.96634 262.465 7.50353C262.465 5.04073 261.862 3.19723 260.664 1.98743C259.465 0.777628 257.782 0.172729 255.613 0.172729V0.165527ZM257.033 9.90153C256.576 10.3768 255.918 10.6144 255.059 10.6144L242.769 10.5784V4.38542H255.059C255.918 4.38542 256.576 4.61586 257.033 5.08394C257.491 5.55201 257.719 6.35855 257.719 7.50353C257.719 8.64852 257.491 9.42625 257.033 9.90153Z" fill="white"/>
<path d="M270.827 17.5059C269.601 16.3033 268.984 14.3878 268.984 11.745C268.984 9.10216 269.601 7.19384 270.827 5.99845C272.053 4.81025 273.938 4.21255 276.473 4.21255H286.685V0.0646696L276.154 -0.000141072C272.296 -0.0217446 269.337 0.964818 267.287 2.95234C265.236 4.93987 264.211 7.87075 264.211 11.745C264.211 15.6192 265.236 18.5789 267.287 20.552C269.337 22.5324 272.289 23.5189 276.154 23.5189H286.982V19.299H276.48C273.944 19.299 272.06 18.7013 270.834 17.4987L270.827 17.5059Z" fill="white"/>
<path d="M294.589 0.165527H289.906V23.3677H294.589V0.165527Z" fill="white"/>
<path d="M313.579 0.165527H306.353L296.932 23.3677H302.024L304.012 18.4709H315.921L317.909 23.3677H323.001L313.579 0.165527ZM305.709 14.251L309.776 4.227H310.157L314.223 14.251H305.709Z" fill="white"/>
<path d="M151.157 11.7451C151.157 7.87089 150.132 4.94721 148.081 2.96689C146.037 0.993763 143.079 0 139.22 0H133.955C130.096 0 127.138 0.986562 125.088 2.96689C123.037 4.94721 122.012 7.87089 122.012 11.7451C122.012 15.6194 123.037 18.5791 125.088 20.5522C127.138 22.5325 130.02 23.5191 133.747 23.5191H139.366C143.128 23.5191 146.037 22.5325 148.088 20.5522C150.138 18.5719 151.164 15.6338 151.164 11.7451H151.157ZM146.238 13.8551C145.926 15.7562 145.171 17.146 143.973 18.0102C142.774 18.8743 141.077 19.3064 138.895 19.3064H134.357C132.133 19.3064 130.415 18.8743 129.21 18.0102C127.997 17.146 127.242 15.7634 126.93 13.8551C126.584 12.242 126.93 9.63518 126.93 9.63518C127.02 9.08789 127.367 8.00051 127.367 8.00051C127.776 6.93474 128.385 6.1066 129.21 5.51611C130.422 4.65196 132.105 4.21989 134.274 4.21989H138.895C141.063 4.21989 142.747 4.65196 143.959 5.51611C144.783 6.1066 145.393 6.93474 145.795 7.98611C145.795 7.98611 146.148 9.1023 146.238 9.63518C146.238 9.63518 146.584 12.2348 146.238 13.8407C146.238 13.8407 146.238 13.8479 146.238 13.8551Z" fill="white"/>
<path d="M106.897 35.4007C106.142 35.091 105.213 34.9326 104.119 34.9326H97.6758V47.6211H100.371V42.8683H104.119C105.213 42.8683 106.142 42.7099 106.897 42.393C107.652 42.0762 108.227 41.6153 108.622 41.0248C109.017 40.4343 109.211 39.7214 109.211 38.8933C109.211 38.0651 109.017 37.3378 108.622 36.7545C108.227 36.164 107.652 35.7175 106.897 35.4079V35.4007ZM105.864 40.5063C105.373 40.8736 104.652 41.0536 103.696 41.0536H100.371V36.7545H103.696C104.652 36.7545 105.373 36.9345 105.864 37.2946C106.356 37.6547 106.599 38.1876 106.599 38.8933C106.599 39.599 106.356 40.1391 105.864 40.5063Z" fill="white"/>
<path d="M111.406 47.6211H121.271V45.792H113.99V42.0978H120.814V40.2615H113.99V36.7689H121.271V34.9326H111.406V47.6211Z" fill="white"/>
<path d="M135.805 36.5172C135.181 35.9555 134.426 35.5163 133.553 35.2138C132.674 34.9042 131.697 34.7529 130.616 34.7529C129.535 34.7529 128.559 34.9042 127.679 35.2138C126.799 35.5163 126.051 35.9555 125.427 36.5244C124.804 37.0933 124.319 37.7774 123.986 38.5768C123.647 39.3761 123.48 40.269 123.48 41.27C123.48 42.271 123.647 43.1495 123.986 43.9488C124.326 44.7554 124.804 45.4395 125.427 46.0156C126.051 46.5917 126.799 47.0309 127.679 47.3406C128.559 47.6431 129.535 47.8015 130.616 47.8015C131.697 47.8015 132.674 47.6503 133.553 47.3406C134.433 47.0382 135.181 46.5917 135.805 46.0156C136.428 45.4395 136.913 44.7482 137.246 43.9488C137.585 43.1423 137.752 42.2422 137.752 41.2484C137.752 40.2546 137.585 39.3545 137.246 38.5552C136.906 37.7558 136.428 37.0789 135.805 36.51V36.5172ZM134.412 43.7184C134.066 44.4025 133.574 44.921 132.937 45.2811C132.3 45.6411 131.524 45.8212 130.609 45.8212C129.695 45.8212 128.94 45.6411 128.295 45.2811C127.651 44.921 127.152 44.4025 126.813 43.7184C126.473 43.0343 126.3 42.2206 126.3 41.27C126.3 40.3194 126.473 39.4913 126.813 38.8144C127.159 38.1375 127.651 37.619 128.295 37.2661C128.94 36.9133 129.715 36.7333 130.609 36.7333C131.503 36.7333 132.3 36.9133 132.944 37.2661C133.588 37.619 134.08 38.1375 134.419 38.8144C134.759 39.4913 134.925 40.3122 134.925 41.27C134.925 42.2278 134.752 43.0343 134.412 43.7184Z" fill="white"/>
<path d="M149.709 35.4007C148.954 35.091 148.026 34.9326 146.931 34.9326H140.488V47.6211H143.183V42.8683H146.931C148.026 42.8683 148.954 42.7099 149.709 42.393C150.464 42.0762 151.039 41.6153 151.434 41.0248C151.829 40.4343 152.023 39.7214 152.023 38.8933C152.023 38.0651 151.829 37.3378 151.434 36.7545C151.039 36.164 150.464 35.7175 149.709 35.4079V35.4007ZM148.677 40.5063C148.185 40.8736 147.465 41.0536 146.509 41.0536H143.183V36.7545H146.509C147.465 36.7545 148.185 36.9345 148.677 37.2946C149.169 37.6547 149.411 38.1876 149.411 38.8933C149.411 39.599 149.169 40.1391 148.677 40.5063Z" fill="white"/>
<path d="M156.908 34.9326H154.213V47.6211H164.023V45.6624H156.908V34.9326Z" fill="white"/>
<path d="M166.045 47.6211H175.917V45.792H168.636V42.0978H175.453V40.2615H168.636V36.7689H175.917V34.9326H166.045V47.6211Z" fill="white"/>
<path d="M195.987 42.8039C196.306 41.9253 196.479 40.9964 196.52 40.017H194.331C194.29 40.7371 194.172 41.4284 193.971 42.0837C193.818 42.6022 193.604 43.0559 193.361 43.4664L190.535 40.8955C191.124 40.6003 191.609 40.2978 191.99 39.9954C192.454 39.6209 192.786 39.2321 193.001 38.8288C193.209 38.4183 193.32 37.9863 193.32 37.5326C193.32 36.9709 193.167 36.4812 192.856 36.0635C192.544 35.6531 192.114 35.329 191.56 35.0986C191.006 34.8682 190.341 34.7529 189.572 34.7529C188.74 34.7529 188.02 34.8826 187.403 35.1346C186.787 35.3866 186.309 35.7395 185.969 36.2004C185.63 36.654 185.464 37.1869 185.464 37.7846C185.464 38.2887 185.602 38.7784 185.872 39.2537C186.115 39.6713 186.496 40.1106 187.002 40.5643L186.877 40.6291C186.246 40.9387 185.706 41.2844 185.256 41.6661C184.805 42.0405 184.466 42.4582 184.224 42.9047C183.988 43.3511 183.863 43.848 183.863 44.3881C183.863 45.0722 184.071 45.6699 184.487 46.1812C184.902 46.6925 185.491 47.0886 186.267 47.3766C187.036 47.6647 187.951 47.8087 189.004 47.8087C189.932 47.8087 190.812 47.6503 191.643 47.3262C192.343 47.0526 192.959 46.6925 193.5 46.2604L195.017 47.6359H198.218L194.927 44.8058C195.356 44.2153 195.71 43.5528 195.98 42.8111L195.987 42.8039ZM188.359 36.7261C188.671 36.4812 189.073 36.3588 189.579 36.3588C190.043 36.3588 190.41 36.4668 190.694 36.6828C190.978 36.8989 191.117 37.2085 191.117 37.619C191.117 37.8926 191.04 38.1447 190.888 38.3751C190.736 38.6056 190.486 38.8288 190.14 39.0592C189.87 39.2393 189.523 39.4337 189.101 39.6497C188.851 39.4121 188.63 39.1889 188.463 39.0088C188.255 38.7784 188.103 38.5624 188.02 38.3607C187.937 38.1591 187.895 37.9503 187.895 37.7198C187.895 37.3022 188.048 36.9637 188.359 36.7189V36.7261ZM190.957 45.6915C190.431 45.9148 189.828 46.0228 189.156 46.0228C188.297 46.0228 187.639 45.8644 187.175 45.5403C186.711 45.2163 186.482 44.7698 186.482 44.2081C186.482 43.8696 186.551 43.5672 186.683 43.3007C186.815 43.0343 187.029 42.7823 187.327 42.5446C187.618 42.3142 187.999 42.0837 188.463 41.8461L192.038 45.0074C191.699 45.2883 191.345 45.5331 190.957 45.6987V45.6915Z" fill="white"/>
<path d="M212.245 36.8049C213.001 36.8049 213.714 36.9129 214.372 37.1218C215.03 37.3306 215.675 37.6618 216.312 38.1227L217.199 36.2864C216.624 35.7967 215.889 35.4151 215.003 35.1558C214.109 34.8894 213.167 34.7598 212.169 34.7598C210.624 34.7598 209.301 35.0262 208.2 35.5591C207.098 36.092 206.253 36.8481 205.664 37.8203C205.075 38.7924 204.777 39.9446 204.777 41.2768C204.777 42.6091 205.075 43.7612 205.664 44.7406C206.253 45.72 207.098 46.4761 208.2 47.009C209.301 47.5419 210.624 47.8083 212.169 47.8083C213.167 47.8083 214.109 47.6715 215.003 47.405C215.896 47.1386 216.624 46.7641 217.199 46.2817L216.312 44.4454C215.682 44.899 215.037 45.2375 214.372 45.4463C213.714 45.6552 213.008 45.7632 212.245 45.7632C210.742 45.7632 209.599 45.3743 208.816 44.5966C208.026 43.8189 207.639 42.7099 207.639 41.284C207.639 39.8582 208.033 38.7564 208.816 37.9787C209.599 37.201 210.742 36.8193 212.245 36.8193V36.8049Z" fill="white"/>
<path d="M224.66 34.9326L217.947 47.6211H220.684L222.139 44.6902H229.378L230.854 47.6211H233.59L226.877 34.9326H224.667H224.66ZM225.734 37.4314H225.776L228.457 42.8467H223.067L225.727 37.4314H225.734Z" fill="white"/>
<path d="M244.038 42.5875C243.837 42.4795 243.622 42.393 243.394 42.3354C243.754 42.2634 244.1 42.1698 244.412 42.0474C245.167 41.7449 245.749 41.3129 246.151 40.7512C246.553 40.1895 246.753 39.5126 246.753 38.7348C246.753 37.5322 246.31 36.6033 245.43 35.9336C244.544 35.2711 243.29 34.9326 241.662 34.9326H235.219V47.6211H237.914V42.5443H239.916C240.269 42.5443 240.574 42.5731 240.844 42.6379C241.114 42.6955 241.35 42.8035 241.558 42.9547C241.765 43.106 241.959 43.3148 242.126 43.574L244.696 47.6211H247.661L245.174 43.7181C244.848 43.1996 244.474 42.8251 244.045 42.5803L244.038 42.5875ZM241.184 40.8448H237.9V36.7617H241.184C242.153 36.7617 242.888 36.9345 243.38 37.273C243.878 37.6115 244.128 38.1227 244.128 38.7925C244.128 39.4622 243.878 39.9878 243.38 40.3335C242.881 40.672 242.147 40.8448 241.184 40.8448Z" fill="white"/>
<path d="M259.591 41.8317C258.912 41.2916 257.873 40.8955 256.487 40.6435L254.194 40.233C253.383 40.089 252.801 39.8874 252.469 39.6281C252.136 39.3689 251.963 39.0232 251.963 38.5912C251.963 38.2095 252.088 37.871 252.33 37.5902C252.573 37.3094 252.933 37.0861 253.397 36.9349C253.861 36.7765 254.416 36.6973 255.06 36.6973C255.905 36.6973 256.674 36.8053 257.374 37.0141C258.073 37.2229 258.718 37.5398 259.307 37.9575L260.124 36.2292C259.729 35.9195 259.272 35.6531 258.745 35.4298C258.219 35.2066 257.644 35.041 257.02 34.9258C256.397 34.8105 255.746 34.7529 255.074 34.7529C253.938 34.7529 252.933 34.9114 252.067 35.2426C251.194 35.5667 250.515 36.0203 250.023 36.6108C249.531 37.2013 249.289 37.8854 249.289 38.6776C249.289 39.6137 249.615 40.3699 250.266 40.9387C250.917 41.5076 251.908 41.9109 253.245 42.1557L255.559 42.5662C256.134 42.6598 256.598 42.7823 256.951 42.9263C257.304 43.0703 257.554 43.2431 257.706 43.4376C257.859 43.632 257.935 43.8696 257.935 44.1505C257.935 44.6546 257.685 45.065 257.18 45.3819C256.674 45.6987 255.87 45.8572 254.762 45.8572C254.118 45.8572 253.501 45.8068 252.919 45.7059C252.337 45.6051 251.79 45.4539 251.277 45.2595C250.765 45.0578 250.28 44.8274 249.816 44.5465L248.998 46.3612C249.462 46.6637 249.989 46.9157 250.584 47.1318C251.18 47.3478 251.831 47.5134 252.545 47.6286C253.252 47.7439 253.993 47.8015 254.762 47.8015C255.954 47.8015 256.993 47.6431 257.866 47.3262C258.745 47.0093 259.417 46.5629 259.895 45.9868C260.373 45.4107 260.609 44.7482 260.609 43.9921C260.609 43.0919 260.27 42.3718 259.591 41.8317Z" fill="white"/>
<path d="M80.3626 12.1412V35.6531L60.0989 47.8087L20.2227 23.9007L29.0209 18.6295L54.8615 34.1624L66.0429 27.4509V20.6386L45.8554 8.5334L60.0989 0L80.3626 12.1412Z" fill="#FF4713"/>
<path d="M0 35.6603V12.1484L20.2637 0L60.133 23.9079L51.3416 29.1792L25.5011 13.6462L14.3197 20.3505V27.1701L34.5072 39.2681L20.2637 47.8087L0 35.6603Z" fill="#FF4713"/>
</svg>
