<svg width="483" height="450" viewBox="0 0 483 450" fill="none" xmlns="http://www.w3.org/2000/svg">
<path d="M483 321.824C427.151 351.181 368.022 383.603 312.636 414.185H317.78C293.235 399.25 258.802 379.15 234.545 364.64C210.087 349.943 175.241 329.892 151.046 315.557L154.676 321.836C154.851 297.683 154.889 249.163 154.939 225.021C154.989 200.918 154.764 152.323 154.688 128.207L151.059 134.499C205.093 102.915 264.009 68.0791 317.805 35.8701H312.636C345.054 53.9697 386.484 76.3847 418.865 94.0214C439.43 105.229 462.373 117.3 483 128.194C449.743 107.093 413.645 85.0905 379.975 64.4892C365.293 55.5833 330.347 34.5067 315.302 25.4131L312.611 26.9141L270.305 50.5049C229.638 73.145 184.228 98.8997 143.761 121.903L140.144 123.979V128.194C139.831 188.86 139.806 261.158 140.144 321.824L140.157 326.027L143.774 328.103C184.24 351.106 229.651 376.835 270.33 399.488L312.623 423.091L315.302 424.58C370.338 391.32 428.79 356.109 483 321.824Z" fill="#6F7271"/>
<path d="M387.312 334.146C324.353 367.244 257.689 403.793 195.244 438.266H201.052C173.377 421.43 134.563 398.777 107.214 382.404C79.6526 365.83 40.3503 343.24 13.0765 327.067L17.1695 334.146C17.3697 306.916 17.4073 252.217 17.4699 224.998C17.5325 197.818 17.2696 143.031 17.182 115.863L13.0891 122.955C74.0076 87.3439 140.421 48.0802 201.064 11.7684H195.244C231.792 32.1695 278.492 57.4364 315.003 77.3372C338.209 89.9832 364.068 103.592 387.324 115.875C349.837 92.0971 309.133 67.293 271.182 44.0525C254.635 34.0208 215.233 10.2424 198.285 -0.00195312L195.256 1.68668L147.568 28.2794C101.719 53.809 50.5388 82.8409 4.90317 108.771L0.822723 111.11V115.863C0.47226 184.259 0.447235 265.763 0.822723 334.146L0.835236 338.887L4.90317 341.226C50.5263 367.156 101.719 396.175 147.568 421.705L195.256 448.31L198.273 449.999C260.318 412.499 326.205 372.81 387.324 334.159L387.312 334.146Z" fill="#FF4713"/>
</svg>
