<svg width="1219" height="1140" viewBox="0 0 1219 1140" fill="none" xmlns="http://www.w3.org/2000/svg">
<path d="M979.789 846.508C820.293 930.354 651.412 1022.95 493.217 1110.28H507.93C437.822 1067.63 339.493 1010.24 270.209 968.759C200.387 926.773 100.821 869.545 31.7277 828.572L42.0965 846.508C42.6038 777.523 42.699 638.953 42.8576 570C43.0161 501.142 42.3502 362.35 42.1282 293.524L31.7595 311.491C186.086 221.276 354.333 121.808 507.962 29.8182H493.217C585.807 81.501 704.112 145.51 796.607 195.926C855.395 227.962 920.905 262.438 979.82 293.556C884.853 233.317 781.736 170.48 685.595 111.604C643.676 86.1908 543.856 25.9523 500.923 0L493.249 4.27785L372.439 71.6461C256.289 136.321 126.632 209.868 11.0219 275.557L0.684815 281.483V293.524C-0.203031 466.793 -0.266449 673.271 0.684815 846.508L0.716554 858.517L11.0219 864.443C126.6 930.132 256.289 1003.65 372.439 1068.32L493.249 1135.72L500.891 1140C658.071 1045 824.986 944.455 979.82 846.539L979.789 846.508Z" fill="#FF4713"/>
<path d="M1218.91 812.004C1077.43 886.375 927.637 968.51 787.326 1045.99H800.358C738.177 1008.15 650.946 957.229 589.495 920.471C527.536 883.238 439.259 832.443 377.966 796.128L387.161 812.036C387.605 750.847 387.7 627.93 387.827 566.772C387.954 505.71 387.383 382.603 387.193 321.509L377.997 337.448C514.884 257.436 664.137 169.186 800.422 87.5895H787.326C869.452 133.442 974.408 190.226 1056.44 234.906C1108.54 263.298 1166.66 293.877 1218.91 321.477C1134.66 268.02 1043.18 212.281 957.919 160.091C920.725 137.529 832.194 84.1355 794.08 61.0985L787.262 64.901L680.087 124.664C577.065 182.019 462.026 247.264 359.511 305.538L350.347 310.798V321.477C349.554 475.163 349.491 658.318 350.347 812.004L350.379 822.651L359.543 827.911C462.057 886.185 577.097 951.367 680.15 1008.75L787.294 1068.55L794.08 1072.32C933.503 988.061 1081.58 898.86 1218.91 812.004Z" fill="#6F7271"/>
</svg>
