<svg width="965" height="900" viewBox="0 0 965 900" fill="none" xmlns="http://www.w3.org/2000/svg">
<path d="M0 643.653C111.698 702.367 229.955 767.21 340.728 828.376H330.439C379.529 798.506 448.396 758.304 496.91 729.285C545.825 699.89 615.517 659.788 663.907 631.119L656.647 643.678C656.297 595.37 656.222 498.331 656.121 450.049C656.021 401.841 656.472 304.652 656.622 256.42L663.882 269.003C555.813 205.836 437.982 136.164 330.389 71.7465H340.728C275.891 107.946 193.031 152.775 128.27 188.049C87.1407 210.464 41.2548 234.605 0 256.395C66.5133 214.191 138.734 170.187 206.049 128.985C235.413 111.173 305.305 69.0196 335.395 50.8325L340.778 53.8345L425.39 101.016C506.723 146.296 597.544 197.805 678.476 243.811L685.711 247.964V256.395C686.337 377.725 686.387 522.322 685.711 643.653L685.686 652.058L678.451 656.211C597.519 702.217 506.698 753.676 425.34 798.981L340.753 846.188L335.395 849.165C225.324 782.645 108.419 712.223 0 643.653Z" fill="#6F7271"/>
<path d="M191.38 668.296C317.298 734.49 450.625 807.588 575.516 876.534H563.9C619.249 842.862 696.877 797.557 751.575 764.81C806.698 731.663 885.302 686.483 939.85 654.136L931.664 668.296C931.263 613.834 931.188 504.436 931.063 450C930.938 395.639 931.463 286.066 931.639 231.729L939.825 245.914C817.988 174.691 685.161 96.1641 563.875 23.5407H575.516C502.419 64.3429 409.02 114.877 335.998 154.678C289.586 179.97 237.867 207.188 191.355 231.755C266.33 184.198 347.738 134.59 423.639 88.1087C456.733 68.0454 535.538 20.4887 569.433 0L575.491 3.37725L670.867 56.5627C762.564 107.622 864.925 165.685 956.196 217.545L964.357 222.223V231.729C965.058 368.521 965.108 531.529 964.357 668.296L964.332 677.777L956.196 682.455C864.95 734.315 762.564 792.353 670.867 843.412L575.491 896.623L569.458 900C445.368 825 313.593 745.622 191.355 668.32L191.38 668.296Z" fill="#FF4713"/>
</svg>
