<svg width="644" height="600" viewBox="0 0 644 600" fill="none" xmlns="http://www.w3.org/2000/svg">
<path d="M643.305 429.103C568.839 468.246 490.001 511.475 416.153 552.252H423.012C390.285 532.338 344.374 505.537 312.031 486.191C279.421 466.595 232.96 439.86 200.7 420.747L205.54 429.12C205.774 396.915 205.824 332.222 205.89 300.034C205.957 267.896 205.657 203.102 205.557 170.948L200.717 179.337C272.763 137.225 351.317 90.7776 423.046 47.8323H416.153C459.377 71.965 514.617 101.852 557.791 125.367C585.211 140.311 615.801 156.405 643.305 170.931C598.962 142.796 550.815 113.459 505.939 85.991C486.363 74.1165 439.768 46.0144 419.708 33.8896L416.12 35.891L359.711 67.3453C305.489 97.5321 244.942 131.872 190.987 162.542L186.164 165.311V170.931C185.747 251.818 185.714 348.216 186.164 429.103L186.181 434.707L191.004 437.475C244.959 468.146 305.506 502.452 359.745 532.655L416.136 564.126L419.708 566.111C493.089 521.765 571.025 474.817 643.305 429.103Z" fill="#464749"/>
<path d="M515.718 445.53C431.773 489.66 342.888 538.392 259.628 584.356H267.371C230.472 561.908 178.72 531.704 142.255 509.873C105.506 487.775 53.1034 457.655 16.7384 436.091L22.1956 445.53C22.4626 409.223 22.5128 336.291 22.5962 300C22.6797 263.759 22.3292 190.71 22.2123 154.486L16.7551 163.943C97.9796 116.461 186.531 64.1094 267.388 15.6938H259.628C308.359 42.8953 370.625 76.5844 419.306 103.119C450.247 119.98 484.727 138.125 515.734 154.503C465.751 122.799 411.479 89.7265 360.879 58.7392C338.816 45.3636 286.28 13.6591 263.683 0L259.644 2.2515L196.06 37.7085C134.929 71.7478 66.6881 110.457 5.84061 145.03L0.400024 148.149V154.486C-0.0672607 245.68 -0.100647 354.353 0.400024 445.53L0.416748 451.851L5.84061 454.97C66.6714 489.543 134.929 528.236 196.06 562.275L259.644 597.748L263.666 600C346.393 550 434.243 497.081 515.734 445.547L515.718 445.53Z" fill="#FF4713"/>
</svg>
