<svg width="674" height="600" viewBox="0 0 674 600" fill="none" xmlns="http://www.w3.org/2000/svg">
<path d="M0 429.104C74.4656 468.247 153.304 511.476 227.152 552.253H220.293C253.019 532.34 298.93 505.538 331.273 486.192C363.883 466.596 410.345 439.861 442.604 420.748L437.765 429.121C437.531 396.916 437.481 332.223 437.414 300.035C437.347 267.897 437.648 203.103 437.748 170.949L442.588 179.338C370.542 137.226 291.988 90.7785 220.259 47.8333H227.152C183.928 71.966 128.688 101.853 85.5136 125.368C58.0938 140.312 27.5032 156.406 0 170.932C44.3422 142.797 92.4728 113.46 137.366 85.992C156.942 74.1174 203.537 46.0154 223.597 33.8906L227.185 35.892L283.593 67.3463C337.815 97.5331 398.362 131.873 452.317 162.543L457.14 165.312V170.932C457.558 251.819 457.591 348.217 457.14 429.104L457.124 434.708L452.301 437.476C398.346 468.147 337.799 502.453 283.56 532.656L227.168 564.127L223.597 566.112C150.216 521.766 72.2793 474.818 0 429.104Z" fill="#6F7271"/>
<path d="M127.595 445.53C211.54 489.66 300.424 538.392 383.685 584.356H375.941C412.84 561.908 464.592 531.704 501.057 509.873C537.806 487.775 590.209 457.655 626.574 436.091L621.117 445.53C620.85 409.223 620.8 336.291 620.716 300C620.633 263.759 620.983 190.71 621.1 154.486L626.557 163.943C545.333 116.461 456.782 64.1094 375.925 15.6938H383.685C334.954 42.8953 272.688 76.5844 224.006 103.119C193.065 119.98 158.586 138.125 127.578 154.503C177.561 122.799 231.833 89.7265 282.434 58.7392C304.496 45.3636 357.033 13.6591 379.63 0L383.668 2.2515L447.253 37.7085C508.384 71.7478 576.624 110.457 637.472 145.03L642.913 148.149V154.486C643.38 245.68 643.413 354.353 642.913 445.53L642.896 451.851L637.472 454.97C576.641 489.543 508.384 528.236 447.253 562.275L383.668 597.748L379.646 600C296.92 550 209.07 497.081 127.578 445.547L127.595 445.53Z" fill="#464749"/>
</svg>
