<svg width="460" height="399" viewBox="0 0 460 399" fill="none" xmlns="http://www.w3.org/2000/svg">
<path d="M318.136 295.977L320.258 298.098L322.379 295.977L380.74 237.618L395.553 252.43L320.258 327.725L283.149 290.616L297.962 275.803L318.136 295.977Z" fill="#FF4713" stroke="#464749" stroke-width="6"/>
<path d="M370.449 159.82L367.222 163.361L371.817 164.717C420.69 179.149 456.453 224.434 456.452 277.907C456.452 342.969 403.516 395.906 338.453 395.906C288.831 395.906 246.256 365.11 228.848 321.611L227.069 317.167L223.845 320.705L206.307 339.952L3.74044 117.651L73.7483 3.54395H338.866L408.875 117.651L370.449 159.82ZM264.544 179.105L261.685 187.901L269.163 182.458C288.635 168.282 312.58 159.907 338.454 159.907C339.057 159.907 339.655 159.917 340.285 159.928L340.628 159.934L341.983 159.957L342.896 158.955L367.539 131.911L372.114 126.891H365.322H283.693H281.514L280.84 128.963L264.544 179.105ZM203.487 281.624L206.334 290.43L209.195 281.628L258.208 130.819L259.485 126.891H255.355H157.587H153.464L154.732 130.814L203.487 281.624ZM161.529 101.295L158.478 105.942H164.037H248.862H254.437L251.366 101.289L208.841 36.8693L206.33 33.0665L203.829 36.8755L161.529 101.295ZM336.067 39.0414L333.439 34.7584L330.916 39.1036L294.716 101.435L292.099 105.942H297.311H371.753H377.113L374.31 101.373L336.067 39.0414ZM270.667 92.5L273.334 96.5399L275.765 92.3539L312.558 29.0001L315.175 24.4935H309.963H231.349H225.774L228.845 29.1463L270.667 92.5ZM137.179 92.3027L139.617 96.5003L142.281 92.4427L183.848 29.1392L186.899 24.4926H181.34H103.011H97.7998L100.417 28.9992L137.179 92.3027ZM115.662 105.942H120.874L118.256 101.435L81.8837 38.8022L79.3601 34.4567L76.7323 38.7399L38.3055 101.373L35.5024 105.942H40.8626H115.662ZM132.119 128.969L131.447 126.891H129.264H47.2949H40.5025L45.0774 131.912L172.119 271.329L177.191 268.385L132.119 128.969ZM241.404 277.907C241.404 331.424 284.937 374.958 338.454 374.958C391.97 374.958 435.503 331.423 435.504 277.907C435.504 224.391 391.971 180.856 338.454 180.856C284.937 180.856 241.404 224.391 241.404 277.907Z" fill="#FF4713" stroke="#464749" stroke-width="6"/>
</svg>
