<svg width="406" height="60" viewBox="0 0 406 60" fill="none" xmlns="http://www.w3.org/2000/svg">
<path d="M153.124 0.289307H145.821L137.187 12.1375H128.45V0.289307H122.572V29.3268H128.45V17.4335H137.153L145.821 29.3268H153.124L142.335 14.7855L153.124 0.289307Z" fill="white"/>
<path d="M222.307 15.5996C223.411 14.1084 223.959 12.0388 223.959 9.40892C223.959 6.31809 223.202 4.00449 221.698 2.48619C220.194 0.967891 218.081 0.20874 215.36 0.20874H193.363V29.3276H199.241V18.6181H211.361L216.977 29.3276H223.663L217.603 18.4103C219.638 18.0307 221.203 17.0908 222.307 15.5996ZM217.151 12.4184C216.577 13.0149 215.751 13.3131 214.673 13.3131L199.249 13.2679V5.50472H214.673C215.751 5.50472 216.577 5.79392 217.151 6.38136C217.725 6.96879 218.012 7.981 218.012 9.41796C218.012 10.8549 217.725 11.831 217.151 12.4274V12.4184Z" fill="white"/>
<path d="M252.605 18.4103C254.64 18.0307 256.205 17.0908 257.309 15.5996C258.413 14.1084 258.961 12.0388 258.961 9.40892C258.961 6.31809 258.204 4.00449 256.7 2.48619C255.196 0.967891 253.083 0.20874 250.362 0.20874H228.365V29.3276H234.243V18.6181H246.363L251.979 29.3276H258.665L252.605 18.4103ZM249.666 13.3222L234.243 13.277V5.50472H249.666C250.745 5.50472 251.57 5.79392 252.144 6.38136C252.718 6.96879 253.005 7.981 253.005 9.41796C253.005 10.8549 252.718 11.831 252.144 12.4274C251.57 13.0239 250.745 13.3222 249.666 13.3222Z" fill="white"/>
<path d="M287.782 18.8983C287.782 20.9589 287.347 22.3687 286.478 23.1098C285.608 23.8599 284.13 24.2304 282.052 24.2304H274.966C272.888 24.2304 271.41 23.8599 270.541 23.1098C269.671 22.3597 269.237 20.9589 269.237 18.8983V0.20874H263.359V18.8983C263.359 21.2842 263.69 23.2725 264.351 24.845C265.011 26.4175 266.115 27.5924 267.654 28.3696C269.193 29.1468 271.306 29.5264 273.966 29.5264H283.035C285.704 29.5264 287.808 29.1378 289.356 28.3696C290.894 27.5924 291.999 26.4175 292.659 24.845C293.32 23.2725 293.651 21.2842 293.651 18.8983V0.20874H287.773V18.8983H287.782Z" fill="white"/>
<path d="M320.798 0.20874H298.801V29.3276H304.678V18.6181H320.798C323.519 18.6181 325.623 17.859 327.136 16.3407C328.64 14.8224 329.396 12.5088 329.396 9.41796C329.396 6.32713 328.64 4.01353 327.136 2.49523C325.632 0.976928 323.519 0.217778 320.798 0.217778V0.20874ZM322.58 12.4274C322.006 13.0239 321.18 13.3222 320.102 13.3222L304.678 13.277V5.50472H320.102C321.18 5.50472 322.006 5.79392 322.58 6.38136C323.154 6.96879 323.441 7.981 323.441 9.41796C323.441 10.8549 323.154 11.831 322.58 12.4274Z" fill="white"/>
<path d="M339.887 21.9706C338.348 20.4613 337.574 18.0574 337.574 14.7406C337.574 11.4238 338.348 9.0289 339.887 7.52868C341.426 6.03749 343.791 5.28738 346.973 5.28738H359.788V0.0817733L346.573 0.000435748C341.73 -0.0266768 338.018 1.21146 335.444 3.70581C332.871 6.20016 331.584 9.87843 331.584 14.7406C331.584 19.6028 332.871 23.3172 335.444 25.7935C338.018 28.2788 341.722 29.5169 346.573 29.5169H360.162V24.2209H346.982C343.8 24.2209 341.435 23.4708 339.896 21.9616L339.887 21.9706Z" fill="white"/>
<path d="M369.707 0.20874H363.83V29.3276H369.707V0.20874Z" fill="white"/>
<path d="M393.539 0.20874H384.471L372.646 29.3276H379.037L381.532 23.1821H396.478L398.973 29.3276H405.363L393.539 0.20874ZM383.662 17.8861L388.766 5.30589H389.244L394.348 17.8861H383.662Z" fill="white"/>
<path d="M189.7 14.7402C189.7 9.87799 188.413 6.20877 185.84 3.72345C183.275 1.24718 179.563 0 174.72 0H168.112C163.269 0 159.557 1.23814 156.983 3.72345C154.41 6.20877 153.123 9.87799 153.123 14.7402C153.123 19.6023 154.41 23.3168 156.983 25.793C159.557 28.2784 163.174 29.5165 167.851 29.5165H174.902C179.623 29.5165 183.275 28.2784 185.849 25.793C188.422 23.3077 189.709 19.6204 189.709 14.7402H189.7ZM183.527 17.3882C183.136 19.7741 182.188 21.5183 180.684 22.6028C179.18 23.6873 177.05 24.2296 174.311 24.2296H168.616C165.826 24.2296 163.669 23.6873 162.156 22.6028C160.635 21.5183 159.687 19.7831 159.296 17.3882C158.861 15.3638 159.296 12.0922 159.296 12.0922C159.409 11.4053 159.844 10.0407 159.844 10.0407C160.357 8.70312 161.122 7.6638 162.156 6.92273C163.678 5.83823 165.791 5.29598 168.512 5.29598H174.311C177.033 5.29598 179.145 5.83823 180.667 6.92273C181.701 7.6638 182.467 8.70312 182.971 10.0226C182.971 10.0226 183.414 11.4234 183.527 12.0922C183.527 12.0922 183.962 15.3547 183.527 17.3701C183.527 17.3701 183.527 17.3791 183.527 17.3882Z" fill="white"/>
<path d="M134.154 44.429C133.207 44.0404 132.041 43.8416 130.668 43.8416H122.582V59.7656H125.964V53.8009H130.668C132.041 53.8009 133.207 53.6021 134.154 53.2044C135.102 52.8068 135.824 52.2284 136.319 51.4873C136.815 50.7462 137.058 49.8515 137.058 48.8122C137.058 47.7729 136.815 46.8601 136.319 46.128C135.824 45.387 135.102 44.8266 134.154 44.438V44.429ZM132.859 50.8366C132.241 51.2975 131.337 51.5234 130.137 51.5234H125.964V46.128H130.137C131.337 46.128 132.241 46.354 132.859 46.8059C133.476 47.2577 133.78 47.9265 133.78 48.8122C133.78 49.6979 133.476 50.3757 132.859 50.8366Z" fill="white"/>
<path d="M139.814 59.7656H152.195V57.4701H143.057V52.8339H151.621V50.5293H143.057V46.1461H152.195V43.8416H139.814V59.7656Z" fill="white"/>
<path d="M170.436 45.8299C169.654 45.125 168.706 44.5737 167.61 44.1941C166.506 43.8055 165.28 43.6157 163.924 43.6157C162.568 43.6157 161.342 43.8055 160.238 44.1941C159.133 44.5737 158.194 45.125 157.412 45.839C156.629 46.5529 156.021 47.4115 155.603 48.4146C155.177 49.4178 154.969 50.5385 154.969 51.7947C154.969 53.0509 155.177 54.1535 155.603 55.1566C156.029 56.1688 156.629 57.0274 157.412 57.7504C158.194 58.4734 159.133 59.0247 160.238 59.4133C161.342 59.7929 162.568 59.9917 163.924 59.9917C165.28 59.9917 166.506 59.8019 167.61 59.4133C168.715 59.0337 169.654 58.4734 170.436 57.7504C171.219 57.0274 171.827 56.1598 172.244 55.1566C172.67 54.1444 172.879 53.0147 172.879 51.7676C172.879 50.5204 172.67 49.3907 172.244 48.3875C171.818 47.3844 171.219 46.5348 170.436 45.8209V45.8299ZM168.688 54.8674C168.254 55.726 167.636 56.3767 166.837 56.8286C166.037 57.2804 165.063 57.5064 163.915 57.5064C162.768 57.5064 161.82 57.2804 161.011 56.8286C160.203 56.3767 159.577 55.726 159.151 54.8674C158.725 54.0089 158.507 52.9876 158.507 51.7947C158.507 50.6017 158.725 49.5624 159.151 48.7129C159.585 47.8634 160.203 47.2127 161.011 46.7698C161.82 46.327 162.794 46.101 163.915 46.101C165.037 46.101 166.037 46.327 166.845 46.7698C167.654 47.2127 168.271 47.8634 168.697 48.7129C169.123 49.5624 169.332 50.5927 169.332 51.7947C169.332 52.9967 169.114 54.0089 168.688 54.8674Z" fill="white"/>
<path d="M187.885 44.429C186.937 44.0404 185.772 43.8416 184.398 43.8416H176.312V59.7656H179.695V53.8009H184.398C185.772 53.8009 186.937 53.6021 187.885 53.2044C188.832 52.8068 189.554 52.2284 190.05 51.4873C190.545 50.7462 190.789 49.8515 190.789 48.8122C190.789 47.7729 190.545 46.8601 190.05 46.128C189.554 45.387 188.832 44.8266 187.885 44.438V44.429ZM186.589 50.8366C185.972 51.2975 185.068 51.5234 183.868 51.5234H179.695V46.128H183.868C185.068 46.128 185.972 46.354 186.589 46.8059C187.207 47.2577 187.511 47.9265 187.511 48.8122C187.511 49.6979 187.207 50.3757 186.589 50.8366Z" fill="white"/>
<path d="M196.917 43.8416H193.535V59.7656H205.846V57.3074H196.917V43.8416Z" fill="white"/>
<path d="M208.387 59.7656H220.776V57.4701H211.638V52.8339H220.194V50.5293H211.638V46.1461H220.776V43.8416H208.387V59.7656Z" fill="white"/>
<path d="M245.961 53.7197C246.361 52.6171 246.579 51.4512 246.631 50.2221H243.883C243.831 51.1259 243.683 51.9935 243.431 52.8159C243.24 53.4666 242.97 54.036 242.666 54.5511L239.119 51.3247C239.858 50.9542 240.466 50.5746 240.945 50.195C241.527 49.7251 241.944 49.2371 242.214 48.731C242.475 48.2158 242.614 47.6736 242.614 47.1042C242.614 46.3993 242.423 45.7847 242.031 45.2606C241.64 44.7454 241.101 44.3387 240.406 44.0495C239.71 43.7603 238.875 43.6157 237.91 43.6157C236.867 43.6157 235.963 43.7784 235.189 44.0947C234.415 44.411 233.815 44.8539 233.389 45.4323C232.963 46.0016 232.754 46.6704 232.754 47.4205C232.754 48.0531 232.928 48.6677 233.267 49.2642C233.572 49.7883 234.05 50.3396 234.685 50.909L234.528 50.9903C233.737 51.3789 233.059 51.8127 232.494 52.2917C231.929 52.7617 231.503 53.2859 231.198 53.8462C230.903 54.4065 230.746 55.0301 230.746 55.7079C230.746 56.5665 231.007 57.3166 231.529 57.9582C232.05 58.5999 232.789 59.097 233.763 59.4585C234.728 59.82 235.876 60.0007 237.197 60.0007C238.362 60.0007 239.467 59.8019 240.51 59.3952C241.388 59.0518 242.162 58.5999 242.84 58.0577L244.744 59.7838H248.761L244.631 56.2321C245.17 55.491 245.613 54.6596 245.953 53.7287L245.961 53.7197ZM236.389 46.092C236.78 45.7847 237.284 45.6311 237.919 45.6311C238.501 45.6311 238.962 45.7666 239.319 46.0378C239.675 46.3089 239.849 46.6975 239.849 47.2127C239.849 47.5561 239.753 47.8724 239.562 48.1616C239.371 48.4508 239.058 48.731 238.623 49.0202C238.284 49.2461 237.849 49.4901 237.319 49.7612C237.006 49.463 236.728 49.1828 236.519 48.9569C236.258 48.6677 236.067 48.3966 235.963 48.1435C235.858 47.8905 235.806 47.6284 235.806 47.3392C235.806 46.815 235.998 46.3902 236.389 46.083V46.092ZM239.649 57.3437C238.988 57.6239 238.232 57.7594 237.389 57.7594C236.31 57.7594 235.485 57.5606 234.902 57.1539C234.319 56.7472 234.033 56.1869 234.033 55.482C234.033 55.0572 234.12 54.6776 234.285 54.3432C234.45 54.0089 234.719 53.6925 235.093 53.3943C235.458 53.1051 235.937 52.8159 236.519 52.5177L241.005 56.4851C240.579 56.8376 240.136 57.1449 239.649 57.3527V57.3437Z" fill="white"/>
<path d="M266.369 46.1909C267.316 46.1909 268.212 46.3265 269.038 46.5886C269.864 46.8507 270.672 47.2664 271.472 47.8448L272.585 45.5402C271.863 44.9257 270.942 44.4467 269.829 44.1213C268.707 43.7869 267.525 43.6243 266.273 43.6243C264.334 43.6243 262.674 43.9587 261.291 44.6274C259.909 45.2962 258.848 46.2451 258.109 47.4652C257.37 48.6853 256.996 50.1313 256.996 51.8032C256.996 53.4751 257.37 54.9212 258.109 56.1503C258.848 57.3794 259.909 58.3283 261.291 58.9971C262.674 59.6658 264.334 60.0002 266.273 60.0002C267.525 60.0002 268.707 59.8285 269.829 59.4941C270.951 59.1597 271.863 58.6898 272.585 58.0843L271.472 55.7797C270.681 56.3491 269.872 56.7738 269.038 57.0359C268.212 57.298 267.325 57.4336 266.369 57.4336C264.482 57.4336 263.047 56.9456 262.065 55.9695C261.074 54.9935 260.587 53.6017 260.587 51.8122C260.587 50.0228 261.082 48.6401 262.065 47.664C263.047 46.688 264.482 46.209 266.369 46.209V46.1909Z" fill="white"/>
<path d="M281.948 43.8416L273.523 59.7656H276.958L278.784 56.0874H287.869L289.721 59.7656H293.155L284.73 43.8416H281.957H281.948ZM283.296 46.9776H283.348L286.713 53.7738H279.949L283.287 46.9776H283.296Z" fill="white"/>
<path d="M306.267 53.4484C306.015 53.3129 305.745 53.2044 305.459 53.1321C305.911 53.0417 306.345 52.9242 306.737 52.7706C307.684 52.391 308.415 51.8488 308.919 51.1439C309.423 50.4389 309.675 49.5894 309.675 48.6134C309.675 47.1041 309.119 45.9383 308.015 45.0978C306.902 44.2663 305.328 43.8416 303.285 43.8416H295.199V59.7656H298.581V53.3942H301.094C301.537 53.3942 301.92 53.4303 302.259 53.5117C302.598 53.584 302.894 53.7195 303.155 53.9093C303.415 54.0991 303.659 54.3612 303.867 54.6866L307.093 59.7656H310.814L307.693 54.8673C307.284 54.2166 306.815 53.7467 306.276 53.4394L306.267 53.4484ZM302.685 51.2613H298.564V46.1371H302.685C303.902 46.1371 304.824 46.354 305.441 46.7787C306.067 47.2035 306.38 47.8452 306.38 48.6857C306.38 49.5261 306.067 50.1859 305.441 50.6197C304.815 51.0444 303.894 51.2613 302.685 51.2613Z" fill="white"/>
<path d="M325.784 52.4996C324.932 51.8218 323.628 51.3247 321.889 51.0084L319.011 50.4933C317.994 50.3125 317.263 50.0595 316.846 49.7341C316.429 49.4088 316.211 48.975 316.211 48.4327C316.211 47.9537 316.368 47.529 316.672 47.1765C316.977 46.824 317.429 46.5439 318.011 46.3541C318.594 46.1553 319.289 46.0559 320.098 46.0559C321.159 46.0559 322.124 46.1914 323.002 46.4535C323.88 46.7156 324.688 47.1132 325.427 47.6374L326.453 45.4684C325.958 45.0798 325.384 44.7454 324.723 44.4653C324.062 44.1851 323.341 43.9772 322.558 43.8326C321.776 43.688 320.959 43.6157 320.115 43.6157C318.689 43.6157 317.429 43.8145 316.342 44.2303C315.246 44.637 314.394 45.2063 313.777 45.9474C313.16 46.6885 312.855 47.547 312.855 48.5412C312.855 49.716 313.264 50.665 314.081 51.3789C314.899 52.0929 316.142 52.599 317.82 52.9063L320.724 53.4214C321.445 53.5389 322.028 53.6925 322.471 53.8733C322.915 54.054 323.228 54.2709 323.419 54.515C323.61 54.759 323.706 55.0572 323.706 55.4097C323.706 56.0423 323.393 56.5574 322.758 56.9551C322.124 57.3527 321.115 57.5516 319.724 57.5516C318.915 57.5516 318.142 57.4883 317.411 57.3618C316.681 57.2352 315.994 57.0455 315.351 56.8014C314.707 56.5484 314.099 56.2592 313.516 55.9067L312.49 58.1842C313.073 58.5638 313.734 58.8801 314.481 59.1512C315.229 59.4223 316.046 59.6302 316.942 59.7748C317.829 59.9194 318.759 59.9917 319.724 59.9917C321.219 59.9917 322.524 59.7929 323.619 59.3952C324.723 58.9976 325.567 58.4372 326.166 57.7142C326.766 56.9912 327.062 56.1598 327.062 55.2108C327.062 54.0812 326.636 53.1774 325.784 52.4996Z" fill="white"/>
<path d="M100.855 15.2372V44.7447L75.4236 60L25.3789 29.9955L36.4207 23.38L68.8507 42.8739L82.8834 34.451V25.9015L57.548 10.7094L75.4236 0L100.855 15.2372Z" fill="#FF4713"/>
<path d="M0 44.7537V15.2463L25.431 0L75.467 30.0045L64.4339 36.62L32.0039 17.1261L17.9712 25.54V34.0985L43.3066 49.2815L25.431 60L0 44.7537Z" fill="#FF4713"/>
</svg>
